<?xml version="1.0" encoding="UTF-8" standalone="no"?>
<!-- Generator: Adobe Illustrator 16.0.0, SVG Export Plug-In . SVG Version: 6.00 Build 0)  -->

<svg
   xmlns:dc="http://purl.org/dc/elements/1.1/"
   xmlns:cc="http://creativecommons.org/ns#"
   xmlns:rdf="http://www.w3.org/1999/02/22-rdf-syntax-ns#"
   xmlns:svg="http://www.w3.org/2000/svg"
   xmlns="http://www.w3.org/2000/svg"
   xmlns:sodipodi="http://sodipodi.sourceforge.net/DTD/sodipodi-0.dtd"
   xmlns:inkscape="http://www.inkscape.org/namespaces/inkscape"
   version="1.1"
   id="Capa_1"
   x="0px"
   y="0px"
   width="59.998px"
   height="59.998px"
   viewBox="0 0 59.998 59.998"
   style="enable-background:new 0 0 59.998 59.998;"
   xml:space="preserve"
   sodipodi:docname="ruller.svg"
   inkscape:version="0.92.4 (5da689c313, 2019-01-14)"><metadata
   id="metadata903"><rdf:RDF><cc:Work
       rdf:about=""><dc:format>image/svg+xml</dc:format><dc:type
         rdf:resource="http://purl.org/dc/dcmitype/StillImage" /></cc:Work></rdf:RDF></metadata><defs
   id="defs901" /><sodipodi:namedview
   pagecolor="#ffffff"
   bordercolor="#666666"
   borderopacity="1"
   objecttolerance="10"
   gridtolerance="10"
   guidetolerance="10"
   inkscape:pageopacity="0"
   inkscape:pageshadow="2"
   inkscape:window-width="1920"
   inkscape:window-height="1017"
   id="namedview899"
   showgrid="false"
   inkscape:zoom="14.133804"
   inkscape:cx="29.999001"
   inkscape:cy="29.999001"
   inkscape:window-x="-8"
   inkscape:window-y="-8"
   inkscape:window-maximized="1"
   inkscape:current-layer="Capa_1" />
<g
   id="g866">
	<path
   d="M40.749,0h-21.5c-0.829,0-1.5,0.672-1.5,1.5v56.998c0,0.828,0.671,1.5,1.5,1.5h21.5c0.829,0,1.5-0.672,1.5-1.5V1.5   C42.249,0.672,41.578,0,40.749,0z M20.749,56.998V3h18.5v1.998h-3.875c-0.829,0-1.5,0.672-1.5,1.5c0,0.828,0.671,1.5,1.5,1.5h3.875   v1h-9.25c-0.829,0-1.5,0.672-1.5,1.5c0,0.828,0.671,1.5,1.5,1.5h9.25v1h-3.875c-0.829,0-1.5,0.672-1.5,1.5   c0,0.828,0.671,1.5,1.5,1.5h3.875v1h-9.25c-0.829,0-1.5,0.672-1.5,1.5c0,0.828,0.671,1.5,1.5,1.5h9.25v1h-3.875   c-0.829,0-1.5,0.672-1.5,1.5c0,0.828,0.671,1.5,1.5,1.5h3.875v1h-9.25c-0.829,0-1.5,0.672-1.5,1.5c0,0.828,0.671,1.5,1.5,1.5h9.25   v1h-3.875c-0.829,0-1.5,0.672-1.5,1.5c0,0.828,0.671,1.5,1.5,1.5h3.875v1h-9.25c-0.829,0-1.5,0.672-1.5,1.5s0.671,1.5,1.5,1.5h9.25   v1h-3.875c-0.829,0-1.5,0.672-1.5,1.5s0.671,1.5,1.5,1.5h3.875v1h-9.25c-0.829,0-1.5,0.672-1.5,1.5s0.671,1.5,1.5,1.5h9.25v1   h-3.875c-0.829,0-1.5,0.672-1.5,1.5s0.671,1.5,1.5,1.5h3.875v1h-9.25c-0.829,0-1.5,0.672-1.5,1.5s0.671,1.5,1.5,1.5h9.25v1h-3.875   c-0.829,0-1.5,0.672-1.5,1.5s0.671,1.5,1.5,1.5h3.875v1H20.749z"
   id="path864" />
</g>
<g
   id="g868">
</g>
<g
   id="g870">
</g>
<g
   id="g872">
</g>
<g
   id="g874">
</g>
<g
   id="g876">
</g>
<g
   id="g878">
</g>
<g
   id="g880">
</g>
<g
   id="g882">
</g>
<g
   id="g884">
</g>
<g
   id="g886">
</g>
<g
   id="g888">
</g>
<g
   id="g890">
</g>
<g
   id="g892">
</g>
<g
   id="g894">
</g>
<g
   id="g896">
</g>
<path
   style="fill:#f9fce1;fill-opacity:1;fill-rule:nonzero;stroke:#000000;stroke-width:0.07086378;stroke-linejoin:round;stroke-miterlimit:4;stroke-dasharray:none;stroke-opacity:1"
   d="M 20.787043,30.006076 V 3.0140505 h 9.197807 9.197807 v 0.9905331 0.990533 h -2.111443 c -2.073774,0 -2.117005,0.00294 -2.423268,0.1646247 -0.479813,0.2533116 -0.726124,0.6562237 -0.759219,1.2419195 -0.02159,0.3820651 0.0025,0.5388352 0.117507,0.7642376 0.186124,0.3648319 0.572415,0.7023542 0.91166,0.7965631 0.157295,0.043681 1.089623,0.07438 2.266009,0.074612 l 1.998754,3.946e-4 v 0.4598903 0.4598903 h -4.696136 c -5.129846,0 -5.080054,-0.0037 -5.515369,0.4095746 -0.361656,0.3433429 -0.490124,0.6861007 -0.459604,1.2262327 0.03309,0.585696 0.279406,0.988608 0.759218,1.24192 l 0.311826,0.164624 h 4.800032 4.800033 v 0.495267 0.495266 h -2.111443 c -2.073774,0 -2.117005,0.0029 -2.423268,0.164625 -0.479813,0.253312 -0.726124,0.656224 -0.759219,1.241919 -0.02159,0.382065 0.0025,0.538836 0.117507,0.764238 0.186124,0.364832 0.572415,0.702354 0.91166,0.796563 0.157295,0.04368 1.089623,0.07438 2.266009,0.07461 l 1.998754,3.95e-4 v 0.45989 0.45989 h -4.638325 c -3.108681,0 -4.739174,0.02539 -4.944126,0.077 -0.385362,0.09703 -0.779171,0.418257 -0.969035,0.790422 -0.117259,0.229846 -0.14132,0.384401 -0.119623,0.768384 0.03425,0.606188 0.279904,0.993541 0.79981,1.261173 l 0.351124,0.180747 4.760087,0.0205 4.760088,0.0205 v 0.454182 0.454183 l -2.186499,0.02058 -2.186499,0.02058 -0.30737,0.222758 c -0.417384,0.302488 -0.626059,0.713862 -0.626059,1.234187 0,0.49948 0.06419,0.67877 0.366104,1.022635 0.444758,0.506552 0.540516,0.524092 2.870816,0.525842 l 2.069507,0.0016 v 0.457987 0.457988 l -4.793473,0.01959 c -4.522716,0.01849 -4.80746,0.02705 -5.041105,0.151684 -0.626388,0.334129 -0.87599,0.770012 -0.836916,1.461519 0.03319,0.587422 0.257211,0.962419 0.746891,1.25026 l 0.337658,0.19848 4.793472,0.02048 4.793473,0.02048 v 0.457098 0.457097 h -2.073303 -2.073303 l -0.359654,0.179223 c -0.476355,0.237378 -0.743268,0.621408 -0.785453,1.130095 -0.04628,0.558085 0.02637,0.823868 0.318457,1.165112 0.470368,0.549518 0.547683,0.564598 2.903749,0.566367 l 2.069507,0.0016 v 0.457537 0.457537 l -4.793473,0.02004 c -4.753052,0.01987 -4.795858,0.02133 -5.076481,0.172348 -0.545173,0.293396 -0.813652,0.745079 -0.813652,1.368869 0,0.623789 0.268479,1.075472 0.813652,1.368868 0.280623,0.151023 0.323429,0.152476 5.076481,0.172349 l 4.793473,0.02004 v 0.457537 0.457537 l -2.069507,0.0016 c -2.30828,0.0017 -2.403118,0.0184 -2.861131,0.502761 -0.288558,0.305159 -0.375789,0.542797 -0.375789,1.023739 0,0.650156 0.295061,1.111016 0.884404,1.381365 0.253731,0.116394 0.497109,0.129986 2.352516,0.131379 l 2.069507,0.0016 v 0.457537 0.457537 l -4.793473,0.02004 -4.793472,0.02004 -0.315244,0.17688 c -0.488779,0.27425 -0.735924,0.681092 -0.768966,1.265841 -0.03885,0.687539 0.203759,1.125797 0.801201,1.447323 0.280648,0.151036 0.323,0.15247 5.076481,0.171898 l 4.793473,0.01959 v 0.457987 0.457987 l -2.069507,0.0016 c -2.356066,0.0018 -2.433381,0.01685 -2.903749,0.566368 -0.292092,0.341244 -0.364737,0.607026 -0.318457,1.165112 0.04219,0.508687 0.309098,0.892717 0.785453,1.130095 l 0.359654,0.179223 h 2.073303 2.073303 v 0.457522 0.457521 l -4.760078,0.02006 -4.760078,0.02006 -0.351133,0.180747 c -0.519916,0.267629 -0.765567,0.654977 -0.79982,1.261173 -0.0217,0.383983 0.0024,0.538538 0.119623,0.768384 0.189864,0.372165 0.583673,0.693387 0.969035,0.790422 0.204952,0.0516 1.835445,0.077 4.944126,0.077 h 4.638325 v 0.45989 0.459891 l -1.998754,4.24e-4 c -1.176386,2.12e-4 -2.108714,0.03093 -2.266009,0.07461 -0.606631,0.168433 -1.041664,0.78135 -1.041664,1.467569 0,0.528266 0.206299,0.937402 0.626059,1.241612 l 0.30737,0.222758 2.186499,0.02058 2.186499,0.02058 v 0.49237 0.492371 H 29.98485 20.787043 Z"
   id="path905"
   inkscape:connector-curvature="0" /></svg>