<?xml version="1.0" encoding="UTF-8" standalone="no"?>
<!-- Generator: Adobe Illustrator 19.0.0, SVG Export Plug-In . SVG Version: 6.00 Build 0)  -->

<svg
   xmlns:dc="http://purl.org/dc/elements/1.1/"
   xmlns:cc="http://creativecommons.org/ns#"
   xmlns:rdf="http://www.w3.org/1999/02/22-rdf-syntax-ns#"
   xmlns:svg="http://www.w3.org/2000/svg"
   xmlns="http://www.w3.org/2000/svg"
   xmlns:xlink="http://www.w3.org/1999/xlink"
   xmlns:sodipodi="http://sodipodi.sourceforge.net/DTD/sodipodi-0.dtd"
   xmlns:inkscape="http://www.inkscape.org/namespaces/inkscape"
   version="1.1"
   id="Capa_1"
   x="0px"
   y="0px"
   viewBox="0 0 60 60"
   style="enable-background:new 0 0 60 60;"
   xml:space="preserve"
   sodipodi:docname="hourglass.svg"
   inkscape:version="0.92.4 (5da689c313, 2019-01-14)"><metadata
   id="metadata51"><rdf:RDF><cc:Work
       rdf:about=""><dc:format>image/svg+xml</dc:format><dc:type
         rdf:resource="http://purl.org/dc/dcmitype/StillImage" /></cc:Work></rdf:RDF></metadata><defs
   id="defs49"><linearGradient
     inkscape:collect="always"
     id="linearGradient862"><stop
       style="stop-color:#ebba1e;stop-opacity:1"
       offset="0"
       id="stop858" /><stop
       style="stop-color:#ebedb3;stop-opacity:1"
       offset="1"
       id="stop860" /></linearGradient><linearGradient
     inkscape:collect="always"
     xlink:href="#linearGradient862"
     id="linearGradient864"
     x1="30.012712"
     y1="54.956635"
     x2="29.86117"
     y2="9.4481602"
     gradientUnits="userSpaceOnUse" /></defs><sodipodi:namedview
   pagecolor="#ffffff"
   bordercolor="#666666"
   borderopacity="1"
   objecttolerance="10"
   gridtolerance="10"
   guidetolerance="10"
   inkscape:pageopacity="0"
   inkscape:pageshadow="2"
   inkscape:window-width="1920"
   inkscape:window-height="1017"
   id="namedview47"
   showgrid="false"
   inkscape:zoom="5.5625733"
   inkscape:cx="11.243608"
   inkscape:cy="20.207343"
   inkscape:window-x="-8"
   inkscape:window-y="-8"
   inkscape:window-maximized="1"
   inkscape:current-layer="Capa_1" />
<path
   style="fill:#E6E6E6;"
   d="M41.857,22.096C43.82,20.786,45,18.582,45,16.222V5H15v11.222c0,2.36,1.18,4.564,3.143,5.874  l9.319,6.843C27.8,29.187,28,29.581,28,30l0,0c0,0.419-0.2,0.813-0.537,1.061l-9.319,6.843C16.18,39.214,15,41.418,15,43.778V55h30  V43.778c0-2.36-1.18-4.564-3.143-5.874l-9.319-6.843C32.2,30.813,32,30.419,32,30l0,0c0-0.419,0.2-0.813,0.537-1.061L41.857,22.096z  "
   id="path2" />
<rect
   x="10"
   y="55"
   style="fill:#f79953;fill-opacity:1"
   width="40"
   height="4"
   id="rect4" />
<rect
   x="10"
   y="1"
   style="fill:#f79953;fill-opacity:1"
   width="40"
   height="4"
   id="rect6" />
<g
   id="g12">
	<path
   style="fill:#df5336;fill-opacity:1"
   d="M54,58h-4H6c-0.552,0-1,0.447-1,1s0.448,1,1,1h44h4c0.552,0,1-0.447,1-1S54.552,58,54,58z"
   id="path8" />
	<path
   style="fill:#df5336;fill-opacity:1"
   d="M6,2h44h4c0.552,0,1-0.447,1-1s-0.448-1-1-1h-4H6C5.448,0,5,0.447,5,1S5.448,2,6,2z"
   id="path10" />
</g>
<path
   style="fill:url(#linearGradient864);fill-opacity:1"
   d="M 40.192,19.6 C 41.324,18.845 42,17.582 42,16.223 v 0 c 0,-1.306 -0.889,-2.445 -2.156,-2.762 0,0 -5.896292,5.904519 -10.095373,6.152254 C 25.549546,19.860989 18,11.444 18,15 v 1.223 c 0,1.359 0.676,2.622 1.808,3.377 L 29,26.346 28.682203,37.011136 C 27.254747,46.449079 18.354079,43.015256 18.191678,45.460119 18.092301,48.564517 18.212156,51.94039 18.001,55 h 24 C 41.823397,51.866449 41.923122,48.23179 41.873881,44.562271 35.097331,44.662548 33.363033,44.456412 31,36.763 V 26.346 Z"
   id="path14"
   inkscape:connector-curvature="0"
   sodipodi:nodetypes="cccczsscccccccccc" />
<g
   id="g16">
</g>
<g
   id="g18">
</g>
<g
   id="g20">
</g>
<g
   id="g22">
</g>
<g
   id="g24">
</g>
<g
   id="g26">
</g>
<g
   id="g28">
</g>
<g
   id="g30">
</g>
<g
   id="g32">
</g>
<g
   id="g34">
</g>
<g
   id="g36">
</g>
<g
   id="g38">
</g>
<g
   id="g40">
</g>
<g
   id="g42">
</g>
<g
   id="g44">
</g>
</svg>