<?xml version="1.0" encoding="utf-8"?>
<!-- Svg Vector Icons : http://www.onlinewebfonts.com/icon -->
<!DOCTYPE svg PUBLIC "-//W3C//DTD SVG 1.1//EN" "http://www.w3.org/Graphics/SVG/1.1/DTD/svg11.dtd">
<svg version="1.1" xmlns="http://www.w3.org/2000/svg" xmlns:xlink="http://www.w3.org/1999/xlink" x="0px" y="0px" viewBox="0 0 1000 1000" enable-background="new 0 0 1000 1000" xml:space="preserve">
<metadata> Svg Vector Icons : http://www.onlinewebfonts.com/icon </metadata>
<g><g transform="translate(0.000000,511.000000) scale(0.100000,-0.100000)"><path d="M4460,5027.9C3378,4926.3,2337.8,4284.7,1720,3336.1c-428.4-657.6-637.7-1476.6-571.9-2245.7l23.9-277L671.9-81.3c-275-492.2-516.1-922.6-536-956.5l-35.9-63.8l591.8-167.4l589.8-169.4l6-980.4l4-978.4h797.1h797.1v-717.4v-717.4h159.4h159.4v876.8v876.8h-797.1h-797.1v934.6v936.6l-103.6,29.9c-57.8,15.9-285,79.7-504.1,143.5C783.5-972,598.2-916.2,590.2-908.3c-8,6,195.3,384.6,450.4,840.9l464.3,829l-27.9,197.3c-39.9,271-21.9,785.1,33.9,1054.1c243.1,1157.8,1006.3,2066.4,2100.3,2500.8c683.5,271,1564.2,285,2275.7,39.9c354.7-123.5,731.3-334.8,1028.2-575.9l113.6-91.7v-372.6l2-374.6h129.5c71.7,0,129.5-6,129.5-14c0-8-37.9-53.8-83.7-99.6l-85.7-85.7l334.8-332.8l332.8-334.8l85.7,85.7c45.8,45.8,91.7,83.7,99.6,83.7c8,0,14-57.8,14-129.5c0-99.6,6-129.5,29.9-129.5c29.9,0,53.8-69.7,91.7-279c25.9-149.5,49.8-1203.6,27.9-1365c-12-109.6-14-109.6-81.7-109.6H7987V299.3c0-71.7-6-129.5-14-129.5c-7.9,0-53.8,37.9-99.6,83.7l-85.7,85.7L7455,4.4l-334.8-332.8l85.7-85.7c45.8-45.8,83.7-91.7,83.7-99.6c0-8-57.8-14-129.5-14h-129.5v-478.2v-478.3h129.5c71.7,0,129.5-6,129.5-13.9c0-8-37.9-51.8-83.7-99.6c-77.7-79.7-81.7-85.7-49.8-121.5c31.9-35.9,23.9-47.8-189.3-255.1c-123.6-121.6-302.9-277-398.5-346.7l-175.4-129.5v-1189.6v-1191.6h159.4h159.4v1111.9V-2610l153.4,119.6c83.7,65.8,243.1,207.2,352.7,314.8l199.3,195.3l185.3-185.3l185.3-183.3l85.7,83.7c45.8,45.8,91.7,83.7,99.6,83.7c8,0,14-57.8,14-129.5v-129.5h478.2h478.2v129.5c0,71.7,6,129.5,13.9,129.5s53.8-37.9,99.6-83.7l85.7-85.7l332.8,334.8l334.8,332.8l-85.7,85.7c-45.8,45.8-83.7,91.7-83.7,99.6c0,8,57.8,13.9,129.5,13.9H9900v478.3v478.2h-129.5c-71.7,0-129.5,6-129.5,14c0,7.9,37.9,53.8,83.7,99.6l85.7,85.7L9475.6,4.4l-332.8,334.8l-85.7-85.7c-45.8-45.8-91.7-83.7-99.6-83.7s-13.9,57.8-13.9,129.5v129.5h-243.1h-245.1l-2,663.6c0,567.9-6,691.5-39.8,876.8l-39.9,213.2h284.9h285v129.5c0,71.7,6,129.5,13.9,129.5s53.8-37.9,99.6-83.7l85.7-85.7l332.8,334.8l334.8,332.8l-85.7,85.7c-45.8,45.8-83.7,91.7-83.7,99.6c0,8,21.9,14,49.8,14c45.8,0,49.8,8,49.8,79.7v79.7h79.7h79.7v398.5v398.5h-129.5c-71.7,0-129.5,6-129.5,14c0,8,37.9,53.8,83.7,99.6l85.7,85.7l-334.8,332.8l-332.8,334.8l-85.7-85.7c-45.8-45.8-91.7-83.7-99.6-83.7s-13.9,57.8-13.9,129.5v129.5h-478.2H7987v-129.5c0-71.7-6-129.5-14-129.5c-7.9,0-53.8,37.9-99.6,83.7l-85.7,85.7L7455,4627.4l-334.8-332.8l89.7-89.7c47.8-47.8,81.7-93.7,75.7-101.6c-8-6-83.7,45.8-169.4,113.6c-587.8,470.3-1265.4,743.3-2008.6,815C4858.5,5053.8,4731,5053.8,4460,5027.9z M8628.7,4649.3c6-81.7,10-85.7,95.6-109.6c49.8-13.9,137.5-49.8,195.3-79.7l103.6-51.8l59.8,55.8l61.8,57.8l111.6-113.6l113.6-111.6l-57.8-61.8l-55.8-59.8l51.8-103.6c29.9-57.8,65.8-145.5,79.7-195.3c23.9-85.7,27.9-89.7,109.6-95.6l83.7-6v-157.4v-157.4l-83.7-6c-81.7-6-85.7-10-109.6-95.6c-13.9-49.8-49.8-137.5-79.7-195.3l-51.8-103.6l55.8-59.8l57.8-61.8L9256.4,2826l-111.6-113.6l-61.8,57.8l-59.8,55.8l-103.6-51.8c-57.8-29.9-145.4-65.8-195.3-79.7c-85.7-23.9-89.7-27.9-95.6-109.6l-6-83.7h-157.4h-157.4l-6,83.7c-6,81.7-10,85.7-95.6,109.6c-49.8,13.9-137.5,49.8-195.3,79.7l-103.6,51.8l-59.8-55.8l-61.8-57.8L7674.2,2826l-113.6,111.6l57.8,61.8l55.8,59.8l-51.8,103.6c-29.9,57.8-65.7,145.5-79.7,195.3c-23.9,85.7-27.9,89.7-109.6,95.6l-83.7,6v157.4v157.4l83.7,6c81.7,6,85.7,10,109.6,95.6c14,49.8,49.8,137.5,79.7,195.3l51.8,103.6l-55.8,59.8l-57.8,61.8l113.6,111.6l111.6,113.6l61.8-57.8l59.8-55.8l103.6,51.8c57.8,29.9,145.5,65.8,195.3,79.7c85.7,23.9,89.7,27.9,95.6,109.6l6,83.7h157.4h157.4L8628.7,4649.3z M8628.7,26.3c6-81.7,10-85.7,95.6-109.6c49.8-14,137.5-49.8,195.3-79.7l103.6-51.8L9083-159l61.8,57.8l111.6-113.6L9370-326.4l-57.8-61.8l-55.8-59.8l51.8-103.6c29.9-57.8,65.8-145.5,79.7-195.3c23.9-85.7,27.9-89.7,109.6-95.6l83.7-6v-157.4v-157.4l-83.7-6c-81.7-6-85.7-10-109.6-95.6c-13.9-49.8-49.8-137.5-79.7-195.3l-51.8-103.6l55.8-59.8l57.8-61.8L9256.4-1797l-111.6-113.6l-61.8,57.8l-59.8,55.8l-103.6-51.8c-57.8-29.9-145.4-65.8-195.3-79.7c-85.7-23.9-89.7-27.9-95.6-109.6l-6-83.7h-157.4h-157.4l-6,83.7c-6,81.7-10,85.7-95.6,109.6c-49.8,13.9-137.5,49.8-195.3,79.7l-103.6,51.8l-59.8-55.8l-61.8-57.8L7674.2-1797l-113.6,111.6l57.8,61.8l55.8,59.8l-51.8,103.6c-29.9,57.8-65.7,145.5-79.7,195.3c-23.9,85.7-27.9,89.7-109.6,95.6l-83.7,6v157.4v157.4l83.7,6c81.7,6,85.7,10,109.6,95.6c14,49.8,49.8,137.5,79.7,195.3l51.8,103.6l-55.8,59.8l-57.8,61.8l113.6,111.6l111.6,113.6l61.8-57.8l59.8-55.8l103.6,51.8c57.8,29.9,145.5,65.8,195.3,79.7c85.7,23.9,89.7,27.9,95.6,109.6l6,83.7h157.4h157.4L8628.7,26.3z"/><path d="M8301.9,4228.9c-199.3-75.7-312.9-175.4-410.5-360.7c-43.8-83.7-53.8-127.5-53.8-251.1c0-133.5,8-163.4,67.8-275c77.7-141.5,157.4-219.2,306.9-296.9c147.5-77.7,356.7-77.7,506.2,0c149.5,77.7,229.2,155.4,306.9,296.9c57.8,109.6,65.8,143.5,65.8,275c2,125.5-8,167.4-53.8,253.1c-77.7,149.4-155.4,229.2-294.9,304.9C8598.8,4250.8,8421.4,4272.7,8301.9,4228.9z M8660.5,3884.1c87.7-65.8,127.5-161.4,117.6-292.9c-12-199.3-131.5-300.9-338.8-287c-199.3,12-300.9,131.5-287,338.8c8,131.5,51.8,205.3,155.4,259.1C8397.5,3949.9,8582.9,3939.9,8660.5,3884.1z"/><path d="M8285.9-400.1c-285-103.6-480.2-386.6-452.3-657.6c13.9-129.5,111.6-324.8,207.2-406.5c131.5-115.6,259-167.4,424.4-167.4c125.5-2,165.4,8,253.1,53.8c149.5,77.7,229.2,155.4,306.9,296.9c59.8,111.6,67.8,141.5,65.8,275c0,165.4-51.8,292.9-167.4,424.4C8776.1-412.1,8481.2-328.4,8285.9-400.1z M8660.5-738.9c87.7-65.8,127.5-161.4,117.6-292.9c-12-199.3-131.5-300.9-338.8-287c-199.3,12-300.9,131.5-287,338.8c8,131.5,51.8,205.2,155.4,259.1C8397.5-673.1,8582.9-683.1,8660.5-738.9z"/><path d="M4157.1,3645l-6-288.9l-145.5-61.8l-147.5-61.8l-203.2,203.2L3453.7,3637l-454.3-454.3L2547,2730.4l201.3-203.3l203.2-201.3l-61.8-145.5l-61.8-147.5l-288.9-6l-290.9-6v-635.7V749.7l290.9-6l288.9-6l61.8-147.5l61.8-145.5l-203.2-201.3L2547,40.3l452.3-452.3l454.3-454.3l201.3,201.3l203.2,203.3l147.5-61.8l145.5-61.8l6-288.9l6-290.9h635.7h635.7l6,292.9l6,290.9l147.5,59.8l145.5,57.8l203.2-201.3l201.3-201.3l454.3,454.3l452.3,452.3l-201.3,201.3l-201.3,203.2l57.8,145.5l59.8,147.5l211.2,6l213.2,6v77.7c0,79.7,0,79.7,79.7,79.7h79.7v558v556l-290.9,6l-288.9,6l-61.8,147.5l-61.8,145.5l203.3,201.3l201.3,203.3l-452.3,452.3L6143.8,3637l-201.3-201.3l-203.2-203.2l-147.5,61.8l-145.5,61.8l-6,288.9l-6,290.9h-635.7h-635.7L4157.1,3645z M5121.6,3364l6-251.1l147.5-39.9c79.7-21.9,231.2-83.7,336.8-137.5L5803,2840l175.4,173.4l175.4,175.4l223.2-225.2l225.2-223.2L6426.8,2565l-173.4-175.4l95.6-191.3c53.8-105.6,115.6-257.1,137.5-336.8l39.9-147.5l251.1-6l253.1-6v-316.8v-316.8l-251.1-6l-251.1-6l-45.8-159.4c-25.9-87.7-87.7-239.1-139.5-336.8L6251.4,383l175.4-177.4l175.4-175.4l-225.2-223.2l-223.2-225.2l-175.4,175.4L5801.1-67.4L5623.7-159c-97.6-51.8-249.1-113.6-336.7-139.5l-159.4-45.8l-6-251.1l-6-251.1h-316.8h-316.8l-6,253.1l-6,251.1l-147.5,39.9c-79.7,21.9-231.2,83.7-336.8,137.5l-191.3,95.6l-175.4-173.4l-175.4-175.4l-223.2,225.2L2995.4,30.3l175.4,175.4L3344.1,381l-95.6,191.3c-53.8,105.6-115.6,257.1-137.5,336.8l-39.9,147.5l-251.1,6l-253.1,6v316.8v316.8l253.1,6l251.1,6l39.9,147.5c21.9,79.7,83.7,231.2,137.5,336.8l95.6,191.3L3170.7,2565l-175.4,175.4l225.2,223.2l223.2,225.2l175.4-175.4l175.4-173.4l191.3,95.6c105.6,53.8,257.1,115.6,336.8,137.5l147.5,39.9l6,251.1l6,253.1h316.8h316.8L5121.6,3364z"/><path d="M4539.7,2630.7c-350.7-75.7-707.4-356.7-872.8-687.5c-187.3-376.6-187.3-733.3,0-1113.9c65.8-135.5,117.6-205.3,245.1-330.8C4338.4,74.1,4928.3-5.6,5432.4,293.3c143.5,83.7,374.6,314.8,458.3,458.3c298.9,504.1,219.2,1094-205.2,1520.4C5370.6,2588.9,4956.2,2718.4,4539.7,2630.7z M5047.8,2311.9c424.4-111.6,707.4-480.2,707.4-926.6c0-540-416.5-956.5-956.5-956.5c-540,0-956.5,416.5-956.5,956.5C3842.3,2021,4430.1,2471.3,5047.8,2311.9z"/></g></g>
</svg>