<?xml version="1.0" encoding="UTF-8" standalone="no"?>
<!-- Generator: Adobe Illustrator 19.0.0, SVG Export Plug-In . SVG Version: 6.00 Build 0)  -->

<svg
   xmlns:dc="http://purl.org/dc/elements/1.1/"
   xmlns:cc="http://creativecommons.org/ns#"
   xmlns:rdf="http://www.w3.org/1999/02/22-rdf-syntax-ns#"
   xmlns:svg="http://www.w3.org/2000/svg"
   xmlns="http://www.w3.org/2000/svg"
   xmlns:sodipodi="http://sodipodi.sourceforge.net/DTD/sodipodi-0.dtd"
   xmlns:inkscape="http://www.inkscape.org/namespaces/inkscape"
   version="1.1"
   id="Layer_1"
   x="0px"
   y="0px"
   viewBox="0 0 512 512"
   style="enable-background:new 0 0 512 512;"
   xml:space="preserve"
   sodipodi:docname="three-balloons.svg"
   inkscape:version="0.92.4 (5da689c313, 2019-01-14)"><metadata
   id="metadata49"><rdf:RDF><cc:Work
       rdf:about=""><dc:format>image/svg+xml</dc:format><dc:type
         rdf:resource="http://purl.org/dc/dcmitype/StillImage" /></cc:Work></rdf:RDF></metadata><defs
   id="defs47" /><sodipodi:namedview
   pagecolor="#ffffff"
   bordercolor="#666666"
   borderopacity="1"
   objecttolerance="10"
   gridtolerance="10"
   guidetolerance="10"
   inkscape:pageopacity="0"
   inkscape:pageshadow="2"
   inkscape:window-width="1920"
   inkscape:window-height="1017"
   id="namedview45"
   showgrid="false"
   inkscape:zoom="0.65186408"
   inkscape:cx="-323.41083"
   inkscape:cy="93.997611"
   inkscape:window-x="-8"
   inkscape:window-y="-8"
   inkscape:window-maximized="1"
   inkscape:current-layer="Layer_1" />
<path
   style="fill:#9ad6d4"
   d="m 315.204,394.776 c -28.74576,8.67797 -46.56202,88.98897 -46.56202,88.98897 C 280.03181,425.18869 241.52334,389.79693 264.303,340.441 h -16.605 c -17.35593,39.05085 22.12348,91.94401 6.13625,134.26348 C 246.24103,439.45024 200.05224,411.04819 196.798,394.777 l -14.026,8.889 c 20.61017,14.10169 71.66698,77.10644 63.53139,106.39458 1.522,2.402 9.53822,-1.1277 12.38222,-1.1277 2.844,0 9.85624,3.23924 11.37924,0.83724 0,0 36.38649,-113.15497 59.16615,-106.10412 z"
   id="path2"
   inkscape:connector-curvature="0"
   sodipodi:nodetypes="ccccccccsccc" />
<path
   style="fill:#ffa1ee;fill-opacity:1"
   d="M191.676,212.2c-29.955-47.4-92.664-61.542-140.063-31.587  c-47.4,29.954-61.542,92.663-31.587,140.062c28.981,45.859,105.122,65.462,157.853,67.839l0.493,30.603l34.278-21.724  l-27.452-13.502C205.682,335.243,220.657,258.059,191.676,212.2z"
   id="path4" />
<path
   style="fill:#a1ffc3;fill-opacity:1"
   d="M320.324,212.2c29.955-47.4,92.664-61.542,140.063-31.587c47.4,29.955,61.542,92.664,31.587,140.063  c-28.981,45.859-105.122,65.462-157.853,67.839l-0.493,30.603l-34.278-21.724l27.452-13.502  C306.318,335.243,291.343,258.059,320.324,212.2z"
   id="path6" />
<path
   style="fill:#FFFFFF;"
   d="M47.996,311.416c-2.75,0-5.44-1.365-7.021-3.859c-22.615-35.684-11.985-83.116,23.698-105.732  c3.875-2.453,9.003-1.304,11.458,2.568c2.454,3.873,1.305,9.002-2.568,11.458C45.613,233.565,37.286,270.717,55,298.667  c2.454,3.874,1.305,9.003-2.568,11.458C51.054,310.998,49.516,311.416,47.996,311.416z"
   id="path8" />
<path
   style="fill:#ffd9a1;fill-opacity:1"
   d="M389.764,133.764C389.764,59.888,329.876,0,256,0S122.236,59.888,122.236,133.764  c0,71.377,70.811,146.691,127.827,186.496l-19.108,31.25h50.092l-19.108-31.25C318.954,280.455,389.764,205.141,389.764,133.764z"
   id="path10" />
<path
   style="fill:#FFFFFF;"
   d="M155.447,142.053C155.447,142.053,155.445,142.053,155.447,142.053c-4.586,0-8.303-3.719-8.303-8.304  C147.153,73.734,195.986,24.908,256,24.908c4.585,0,8.303,3.717,8.303,8.303s-3.717,8.303-8.303,8.303  c-50.86,0-92.243,41.377-92.251,92.237C163.748,138.336,160.031,142.053,155.447,142.053z"
   id="path12" />
<g
   id="g14">
</g>
<g
   id="g16">
</g>
<g
   id="g18">
</g>
<g
   id="g20">
</g>
<g
   id="g22">
</g>
<g
   id="g24">
</g>
<g
   id="g26">
</g>
<g
   id="g28">
</g>
<g
   id="g30">
</g>
<g
   id="g32">
</g>
<g
   id="g34">
</g>
<g
   id="g36">
</g>
<g
   id="g38">
</g>
<g
   id="g40">
</g>
<g
   id="g42">
</g>
<path
   style="fill:#fd0000;stroke:none;stroke-width:1px;stroke-linecap:butt;stroke-linejoin:miter;stroke-opacity:1;fill-opacity:1"
   d="M 67.254236,16.271195 C 37.966101,48.813568 37.966101,49.898313 37.966101,49.898313 L 45.559321,82.440686 16.271186,121.49153 29.288135,130.1695 58.57627,87.864414 50.98305,56.406788 79.186439,22.77967 Z"
   id="path832"
   inkscape:connector-curvature="0" /><path
   sodipodi:type="spiral"
   style="fill:none;fill-rule:evenodd;stroke:#ff0000;stroke-width:4.80000019;stroke-miterlimit:4;stroke-dasharray:none;stroke-opacity:1"
   id="path836"
   sodipodi:cx="443.34396"
   sodipodi:cy="79.394478"
   sodipodi:expansion="1"
   sodipodi:revolution="2.9845099"
   sodipodi:radius="49.400612"
   sodipodi:argument="-17.812511"
   sodipodi:t0="0"
   d="m 443.34396,79.394478 c 1.26669,2.143413 -2.26434,2.764956 -3.56249,2.10532 -3.51792,-1.787572 -2.88907,-6.720577 -0.64815,-9.230309 4.00849,-4.489321 11.11689,-3.308431 14.89813,0.809028 5.54911,6.042538 3.75684,15.57885 -2.26621,20.565939 -8.02777,6.647004 -20.0649,4.218632 -26.23375,-3.723377 -7.76287,-9.994208 -4.68754,-24.562624 5.18055,-31.901568 11.95159,-8.888444 29.06696,-5.160614 37.56938,6.637726 10.01981,13.903935 5.63631,33.575429 -8.09489,43.237193 -15.85322,11.1549 -38.08666,6.11374 -48.90502,-9.552071 -12.2925,-17.800494 -6.59239,-42.599809 11.00925,-54.572825 19.74639,-13.431915 47.11438,-7.071939 60.24064,12.466422 13.53736,20.150279 8.56797,47.861864 -10.04028,63.044154" /><path
   style="fill:#fdff00;fill-opacity:1;stroke:none;stroke-width:1px;stroke-linecap:butt;stroke-linejoin:miter;stroke-opacity:1"
   d="m 375.20547,398.65553 c 7.6118,43.11451 8.46658,43.78235 8.46658,43.78235 l 30.31847,14.05181 12.7405,47.12157 14.85241,-4.91468 -15.30486,-49.1251 -29.46368,-13.38396 -9.13443,-42.92757 z"
   id="path832-6"
   inkscape:connector-curvature="0" /><path
   style="fill:#00ff00;fill-opacity:1;stroke:none;stroke-width:1px;stroke-linecap:butt;stroke-linejoin:miter;stroke-opacity:1"
   d="m 45.906483,398.39911 c 28.37147,33.34457 29.446631,33.4884 29.446631,33.4884 l 33.261856,-3.2111 34.82246,34.20758 10.32737,-11.75133 -38.04797,-34.63908 -32.186682,3.35494 -29.590475,-32.41324 z"
   id="path832-6-5"
   inkscape:connector-curvature="0" /></svg>