<?xml version="1.0" encoding="UTF-8" standalone="no"?>
<!-- Generator: Adobe Illustrator 16.0.0, SVG Export Plug-In . SVG Version: 6.00 Build 0)  -->

<svg
   xmlns:dc="http://purl.org/dc/elements/1.1/"
   xmlns:cc="http://creativecommons.org/ns#"
   xmlns:rdf="http://www.w3.org/1999/02/22-rdf-syntax-ns#"
   xmlns:svg="http://www.w3.org/2000/svg"
   xmlns="http://www.w3.org/2000/svg"
   xmlns:sodipodi="http://sodipodi.sourceforge.net/DTD/sodipodi-0.dtd"
   xmlns:inkscape="http://www.inkscape.org/namespaces/inkscape"
   version="1.1"
   id="Capa_1"
   x="0px"
   y="0px"
   width="70.80603"
   height="70"
   viewBox="0 0 70.806026 69.999999"
   xml:space="preserve"
   sodipodi:docname="hard-hat.svg"
   inkscape:version="0.92.4 (5da689c313, 2019-01-14)"><metadata
   id="metadata47"><rdf:RDF><cc:Work
       rdf:about=""><dc:format>image/svg+xml</dc:format><dc:type
         rdf:resource="http://purl.org/dc/dcmitype/StillImage" /><dc:title></dc:title></cc:Work></rdf:RDF></metadata><defs
   id="defs45" /><sodipodi:namedview
   pagecolor="#ffffff"
   bordercolor="#666666"
   borderopacity="1"
   objecttolerance="10"
   gridtolerance="10"
   guidetolerance="10"
   inkscape:pageopacity="0"
   inkscape:pageshadow="2"
   inkscape:window-width="1920"
   inkscape:window-height="1017"
   id="namedview43"
   showgrid="false"
   inkscape:zoom="19.932813"
   inkscape:cx="50.549029"
   inkscape:cy="58.299072"
   inkscape:window-x="-8"
   inkscape:window-y="-8"
   inkscape:window-maximized="1"
   inkscape:current-layer="Capa_1" />

<g
   id="g12"
   transform="matrix(0.12548834,0,0,0.12138221,2.7535062,2.6659114)">
</g>
<g
   id="g14"
   transform="matrix(0.12548834,0,0,0.12138221,2.7535062,2.6659114)">
</g>
<g
   id="g16"
   transform="matrix(0.12548834,0,0,0.12138221,2.7535062,2.6659114)">
</g>
<g
   id="g18"
   transform="matrix(0.12548834,0,0,0.12138221,2.7535062,2.6659114)">
</g>
<g
   id="g20"
   transform="matrix(0.12548834,0,0,0.12138221,2.7535062,2.6659114)">
</g>
<g
   id="g22"
   transform="matrix(0.12548834,0,0,0.12138221,2.7535062,2.6659114)">
</g>
<g
   id="g24"
   transform="matrix(0.12548834,0,0,0.12138221,2.7535062,2.6659114)">
</g>
<g
   id="g26"
   transform="matrix(0.12548834,0,0,0.12138221,2.7535062,2.6659114)">
</g>
<g
   id="g28"
   transform="matrix(0.12548834,0,0,0.12138221,2.7535062,2.6659114)">
</g>
<g
   id="g30"
   transform="matrix(0.12548834,0,0,0.12138221,2.7535062,2.6659114)">
</g>
<g
   id="g32"
   transform="matrix(0.12548834,0,0,0.12138221,2.7535062,2.6659114)">
</g>
<g
   id="g34"
   transform="matrix(0.12548834,0,0,0.12138221,2.7535062,2.6659114)">
</g>
<g
   id="g36"
   transform="matrix(0.12548834,0,0,0.12138221,2.7535062,2.6659114)">
</g>
<g
   id="g38"
   transform="matrix(0.12548834,0,0,0.12138221,2.7535062,2.6659114)">
</g>
<g
   id="g40"
   transform="matrix(0.12548834,0,0,0.12138221,2.7535062,2.6659114)">
</g>
<path
   style="fill:#fee9b2;fill-opacity:1;fill-rule:nonzero;stroke:#000000;stroke-width:1.5;stroke-linejoin:round;stroke-miterlimit:4;stroke-dasharray:none;stroke-opacity:1"
   d="m 20.360561,20.192952 v -2.204663 h 1.087591 c 1.066118,0 1.097163,-0.02938 1.572845,-1.489044 0.965152,-2.961634 4.573222,-7.342669 7.079701,-8.5964119 l 0.801338,-0.400823 v 5.4084869 c 0.04344,7.197848 0.31306,7.282455 5.2564,7.282455 5.619784,0 5.85489,-0.31003 5.85489,-7.720698 V 7.4896817 l 1.210843,0.8161981 c 2.842148,1.9158082 5.635884,5.4267952 6.636216,8.3399642 0.431827,1.257568 0.522576,1.342445 1.435244,1.342445 h 0.974268 v 2.204663 2.204657 H 36.31523 20.360561 Z"
   id="path854"
   inkscape:connector-curvature="0"
   sodipodi:nodetypes="ccssccccsccsscccccc" /><path
   style="fill:#fee9b2;fill-opacity:1;fill-rule:nonzero;stroke:#000000;stroke-width:1.24112236;stroke-linejoin:round;stroke-miterlimit:4;stroke-dasharray:none;stroke-opacity:1"
   d="m 33.649489,17.810711 c -0.527543,-0.345101 -0.533186,-0.409966 -0.533186,-6.126875 0,-6.9902646 -0.236428,-6.5197053 3.275749,-6.5197053 3.614567,0 3.441556,-0.3340703 3.441556,6.6454463 0,6.793242 0.227888,6.349928 -3.264187,6.349928 -1.771914,0 -2.524096,-0.08986 -2.919932,-0.348794 z"
   id="path856"
   inkscape:connector-curvature="0" /><path
   style="fill:#fbd1b7;fill-opacity:1;fill-rule:nonzero;stroke:#000000;stroke-width:1.5;stroke-linejoin:round;stroke-miterlimit:4;stroke-dasharray:none;stroke-opacity:1"
   d="M 34.267392,43.067059 C 29.97607,42.341661 25.991223,38.300595 24.895,33.562447 24.619591,32.372053 24.406606,32.066378 23.501503,31.562512 21.539052,30.470028 20.888877,27.765947 22.152506,25.952039 l 0.652325,-0.936402 13.567978,-0.07156 13.567982,-0.07154 0.594742,0.930825 c 0.778374,1.21823 0.795232,3.300162 0.03647,4.50386 -0.542773,0.86105 -1.876684,1.735765 -2.646977,1.735765 -0.240001,0 -0.514817,0.610277 -0.731254,1.623869 -0.526981,2.467914 -1.915452,4.808343 -3.938593,6.638966 -2.580885,2.335288 -5.749235,3.308678 -8.987787,2.761237 z"
   id="path858"
   inkscape:connector-curvature="0" /><path
   style="fill:#d3f6f3;fill-opacity:1;fill-rule:nonzero;stroke:#000000;stroke-width:1.5;stroke-linejoin:round;stroke-miterlimit:4;stroke-dasharray:none;stroke-opacity:1"
   d="m 10.856837,65.89919 c -0.558199,-5.165792 0.25212,-11.45853 1.933086,-15.011883 0.836228,-1.767677 2.480322,-3.547875 3.989893,-4.320181 0.984009,-0.503428 1.745673,-0.608348 5.043252,-0.694702 l 3.884194,-0.101714 1.232185,-1.214423 c 0.677699,-0.667931 1.345958,-1.214424 1.485013,-1.214424 0.139057,0 0.620231,0.253058 1.069278,0.562342 1.61502,1.112369 3.952996,1.716283 6.67904,1.72525 2.884241,0.0094 4.94193,-0.559589 7.087167,-1.960014 l 1.255149,-0.819374 1.517204,1.486016 1.517208,1.486022 3.286134,0.003 c 2.840582,0.0024 3.479563,0.08982 4.712739,0.645289 4.196495,1.890265 6.40259,7.811652 6.406599,17.195982 l 0.0016,3.927034 H 36.498266 11.039877 Z"
   id="path860"
   inkscape:connector-curvature="0" /></svg>