<?xml version="1.0" encoding="UTF-8" standalone="no"?>
<!-- Generator: Adobe Illustrator 19.0.0, SVG Export Plug-In . SVG Version: 6.00 Build 0)  -->

<svg
   xmlns:dc="http://purl.org/dc/elements/1.1/"
   xmlns:cc="http://creativecommons.org/ns#"
   xmlns:rdf="http://www.w3.org/1999/02/22-rdf-syntax-ns#"
   xmlns:svg="http://www.w3.org/2000/svg"
   xmlns="http://www.w3.org/2000/svg"
   xmlns:sodipodi="http://sodipodi.sourceforge.net/DTD/sodipodi-0.dtd"
   xmlns:inkscape="http://www.inkscape.org/namespaces/inkscape"
   version="1.1"
   id="Layer_1"
   x="0px"
   y="0px"
   viewBox="0 0 327.88 327.88"
   style="enable-background:new 0 0 327.88 327.88;"
   xml:space="preserve"
   sodipodi:docname="money.svg"
   inkscape:version="0.92.4 (5da689c313, 2019-01-14)"><metadata
   id="metadata911"><rdf:RDF><cc:Work
       rdf:about=""><dc:format>image/svg+xml</dc:format><dc:type
         rdf:resource="http://purl.org/dc/dcmitype/StillImage" /></cc:Work></rdf:RDF></metadata><defs
   id="defs909" /><sodipodi:namedview
   pagecolor="#ffffff"
   bordercolor="#666666"
   borderopacity="1"
   objecttolerance="10"
   gridtolerance="10"
   guidetolerance="10"
   inkscape:pageopacity="0"
   inkscape:pageshadow="2"
   inkscape:window-width="1920"
   inkscape:window-height="1017"
   id="namedview907"
   showgrid="false"
   inkscape:zoom="2.586312"
   inkscape:cx="163.94"
   inkscape:cy="163.94"
   inkscape:window-x="-8"
   inkscape:window-y="-8"
   inkscape:window-maximized="1"
   inkscape:current-layer="Layer_1" />
<g
   id="g874">
	<g
   id="g872">
		<g
   id="g870">
			<path
   d="M325.683,113.561L214.32,2.197C212.912,0.79,211.005,0,209.016,0c-1.989,0-3.896,0.79-5.304,2.197L2.197,203.712     c-2.929,2.929-2.929,7.678,0,10.606L113.56,325.682c1.407,1.407,3.315,2.197,5.304,2.197s3.896-0.79,5.304-2.197l201.516-201.515     C328.612,121.239,328.612,116.49,325.683,113.561z M118.864,309.773L18.107,209.015L209.016,18.107l100.757,100.757     L118.864,309.773z"
   id="path864" />
			<path
   d="M163.94,130.44c-8.948,0-17.361,3.484-23.689,9.812c-13.06,13.062-13.06,34.314,0,47.376     c6.327,6.328,14.74,9.812,23.689,9.812s17.361-3.484,23.688-9.812c13.061-13.061,13.061-34.314,0-47.376     C181.301,133.924,172.888,130.44,163.94,130.44z M177.021,177.021c-3.494,3.494-8.14,5.418-13.081,5.418     s-9.587-1.924-13.081-5.418c-7.213-7.213-7.213-18.95,0-26.163c3.494-3.494,8.14-5.419,13.081-5.419s9.587,1.924,13.081,5.419     C184.234,158.072,184.234,169.808,177.021,177.021z"
   id="path866" />
			<path
   d="M190.631,53.74c-1.989,0-3.896,0.79-5.304,2.197L55.937,185.328c-2.929,2.929-2.929,7.678,0,10.606     c7.214,7.213,7.213,18.95,0,26.163c-2.929,2.929-2.929,7.678,0,10.606l39.238,39.239c1.407,1.407,3.314,2.197,5.304,2.197     c1.989,0,3.896-0.79,5.304-2.197c3.494-3.494,8.14-5.418,13.081-5.418s9.587,1.924,13.081,5.418     c1.407,1.407,3.314,2.197,5.304,2.197s3.896-0.79,5.304-2.197l129.391-129.391c2.929-2.929,2.929-7.678,0-10.606     c-7.214-7.213-7.213-18.95,0-26.163c2.929-2.929,2.929-7.678,0-10.606l-39.238-39.239c-1.407-1.407-3.314-2.197-5.304-2.197     c-1.989,0-3.896,0.79-5.304,2.197c-3.494,3.494-8.14,5.418-13.081,5.418c-4.942,0-9.588-1.924-13.082-5.418     C194.528,54.53,192.621,53.74,190.631,53.74z M226.808,71.254l29.823,29.823c-6.789,10.835-6.789,24.738,0,35.572     L136.656,256.625c-5.28-3.323-11.399-5.101-17.792-5.101s-12.512,1.778-17.792,5.101l-29.823-29.823     c6.789-10.835,6.789-24.738,0-35.572L191.224,71.254c5.28,3.323,11.399,5.101,17.792,5.101S221.528,74.577,226.808,71.254z"
   id="path868" />
		</g>
	</g>
</g>
<g
   id="g876">
</g>
<g
   id="g878">
</g>
<g
   id="g880">
</g>
<g
   id="g882">
</g>
<g
   id="g884">
</g>
<g
   id="g886">
</g>
<g
   id="g888">
</g>
<g
   id="g890">
</g>
<g
   id="g892">
</g>
<g
   id="g894">
</g>
<g
   id="g896">
</g>
<g
   id="g898">
</g>
<g
   id="g900">
</g>
<g
   id="g902">
</g>
<g
   id="g904">
</g>
<path
   style="fill:#d3f6f3;fill-opacity:1;fill-rule:nonzero;stroke:#000000;stroke-width:0.38725984;stroke-linejoin:round;stroke-miterlimit:4;stroke-dasharray:none;stroke-opacity:1"
   d="m 68.55331,259.28822 -50.263868,-50.26498 95.308788,-95.30938 95.3088,-95.309383 50.26472,50.26472 50.26472,50.264723 -95.30964,95.30965 -95.30965,95.30964 z m 34.25863,14.63494 c 0.81571,-0.24439 2.48883,-1.30732 3.71804,-2.36206 7.32676,-6.2868 17.08806,-6.40946 24.27404,-0.30502 3.43507,2.91808 5.61103,3.57339 8.84811,2.66468 1.39323,-0.3911 9.77024,-8.61475 67.25193,-66.02065 36.11325,-36.06564 65.9753,-66.18287 66.36011,-66.92717 1.67172,-3.23348 1.27076,-6.25663 -1.20246,-9.06637 -3.80821,-4.32635 -5.66046,-9.4461 -5.23847,-14.47953 0.35075,-4.18379 1.85819,-7.46758 5.48367,-11.94559 1.81307,-2.23941 2.32443,-4.24213 1.73542,-6.796602 -0.4457,-1.932914 -0.98571,-2.513946 -21.19656,-22.806621 -14.01865,-14.07541 -21.24038,-21.057826 -22.28581,-21.547298 -3.06688,-1.435923 -5.97885,-0.788739 -9.32092,2.071568 -7.47532,6.397745 -17.57371,6.271329 -24.85979,-0.311204 -2.60961,-2.357626 -5.05453,-2.967112 -8.35089,-2.081769 -1.34639,0.361614 -10.04449,8.908155 -67.18924,66.018496 -44.897796,44.87076 -65.884279,66.0999 -66.407295,67.17512 -0.831949,1.71032 -0.999284,4.52696 -0.367643,6.1883 0.218366,0.57435 1.273175,2.09282 2.34402,3.37437 3.596236,4.30388 4.787894,7.78404 4.514234,13.18352 -0.211567,4.17435 -1.155661,6.90638 -3.354417,9.70707 -3.319299,4.228 -3.642414,4.81498 -3.818347,6.9365 -0.335608,4.04699 -0.94429,3.31378 21.134452,25.45841 20.966407,21.02898 22.42625,22.3162 25.308856,22.3162 0.62472,0 1.80325,-0.19995 2.61896,-0.44435 z"
   id="path913"
   inkscape:connector-curvature="0" /></svg>