<?xml version="1.0" encoding="UTF-8" standalone="no"?>
<!-- Generator: Adobe Illustrator 19.0.0, SVG Export Plug-In . SVG Version: 6.00 Build 0)  -->

<svg
   xmlns:dc="http://purl.org/dc/elements/1.1/"
   xmlns:cc="http://creativecommons.org/ns#"
   xmlns:rdf="http://www.w3.org/1999/02/22-rdf-syntax-ns#"
   xmlns:svg="http://www.w3.org/2000/svg"
   xmlns="http://www.w3.org/2000/svg"
   xmlns:sodipodi="http://sodipodi.sourceforge.net/DTD/sodipodi-0.dtd"
   xmlns:inkscape="http://www.inkscape.org/namespaces/inkscape"
   version="1.1"
   id="Layer_1"
   x="0px"
   y="0px"
   viewBox="0 0 59.999999 59.999999"
   xml:space="preserve"
   sodipodi:docname="checked.svg"
   inkscape:version="0.92.4 (5da689c313, 2019-01-14)"
   width="60"
   height="60"><metadata
   id="metadata47"><rdf:RDF><cc:Work
       rdf:about=""><dc:format>image/svg+xml</dc:format><dc:type
         rdf:resource="http://purl.org/dc/dcmitype/StillImage" /><dc:title></dc:title></cc:Work></rdf:RDF></metadata><defs
   id="defs45" /><sodipodi:namedview
   pagecolor="#ffffff"
   bordercolor="#666666"
   borderopacity="1"
   objecttolerance="10"
   gridtolerance="10"
   guidetolerance="10"
   inkscape:pageopacity="0"
   inkscape:pageshadow="2"
   inkscape:window-width="1920"
   inkscape:window-height="1017"
   id="namedview43"
   showgrid="false"
   inkscape:zoom="7.4447948"
   inkscape:cx="52.342865"
   inkscape:cy="25.286451"
   inkscape:window-x="-8"
   inkscape:window-y="-8"
   inkscape:window-maximized="1"
   inkscape:current-layer="Layer_1" />
<ellipse
   style="fill:#32ba7c;stroke-width:0.11255265"
   cx="30.22246"
   cy="30.314829"
   id="circle2"
   rx="28.610594"
   ry="28.476273" />
<path
   style="fill:#0aa06e;stroke-width:0.07665024"
   d="M 29.131378,43.35761 16.673987,55.269056 C 8.8874978,52.053133 3.878544,43.227628 2.7874672,37.616837 5.6256142,34.711409 9.1087986,31.123963 12.224856,27.835352 Z"
   id="path4"
   inkscape:connector-curvature="0"
   sodipodi:nodetypes="ccccc" />
<g
   id="g10"
   transform="matrix(0.11281781,0,0,0.11228813,1.6118638,1.8385566)">
	<path
   style="fill:#ffffff"
   d="m 260,310.4 c 11.2,11.2 11.2,30.4 0,41.6 l -23.2,23.2 c -11.2,11.2 -30.4,11.2 -41.6,0 L 93.6,272.8 c -11.2,-11.2 -11.2,-30.4 0,-41.6 L 116.8,208 c 11.2,-11.2 30.4,-11.2 41.6,0 z"
   id="path6"
   inkscape:connector-curvature="0" />
	<path
   style="fill:#ffffff"
   d="m 348.8,133.6 c 11.2,-11.2 30.4,-11.2 41.6,0 l 23.2,23.2 c 11.2,11.2 11.2,30.4 0,41.6 l -176,175.2 c -11.2,11.2 -30.4,11.2 -41.6,0 l -23.2,-23.2 c -11.2,-11.2 -11.2,-30.4 0,-41.6 z"
   id="path8"
   inkscape:connector-curvature="0" />
</g>
<g
   id="g12"
   transform="translate(0,-447.20001)">
</g>
<g
   id="g14"
   transform="translate(0,-447.20001)">
</g>
<g
   id="g16"
   transform="translate(0,-447.20001)">
</g>
<g
   id="g18"
   transform="translate(0,-447.20001)">
</g>
<g
   id="g20"
   transform="translate(0,-447.20001)">
</g>
<g
   id="g22"
   transform="translate(0,-447.20001)">
</g>
<g
   id="g24"
   transform="translate(0,-447.20001)">
</g>
<g
   id="g26"
   transform="translate(0,-447.20001)">
</g>
<g
   id="g28"
   transform="translate(0,-447.20001)">
</g>
<g
   id="g30"
   transform="translate(0,-447.20001)">
</g>
<g
   id="g32"
   transform="translate(0,-447.20001)">
</g>
<g
   id="g34"
   transform="translate(0,-447.20001)">
</g>
<g
   id="g36"
   transform="translate(0,-447.20001)">
</g>
<g
   id="g38"
   transform="translate(0,-447.20001)">
</g>
<g
   id="g40"
   transform="translate(0,-447.20001)">
</g>
</svg>