<?xml version="1.0" encoding="UTF-8" standalone="no"?>
<!-- Generator: Adobe Illustrator 18.1.1, SVG Export Plug-In . SVG Version: 6.00 Build 0)  -->

<svg
   xmlns:dc="http://purl.org/dc/elements/1.1/"
   xmlns:cc="http://creativecommons.org/ns#"
   xmlns:rdf="http://www.w3.org/1999/02/22-rdf-syntax-ns#"
   xmlns:svg="http://www.w3.org/2000/svg"
   xmlns="http://www.w3.org/2000/svg"
   xmlns:sodipodi="http://sodipodi.sourceforge.net/DTD/sodipodi-0.dtd"
   xmlns:inkscape="http://www.inkscape.org/namespaces/inkscape"
   version="1.1"
   id="Capa_1"
   x="0px"
   y="0px"
   viewBox="0 0 26.076 26.076"
   xml:space="preserve"
   sodipodi:docname="flower-bouquet.svg"
   width="26.076"
   height="26.076"
   inkscape:version="0.92.4 (5da689c313, 2019-01-14)"><metadata
   id="metadata41"><rdf:RDF><cc:Work
       rdf:about=""><dc:format>image/svg+xml</dc:format><dc:type
         rdf:resource="http://purl.org/dc/dcmitype/StillImage" /><dc:title></dc:title></cc:Work></rdf:RDF></metadata><defs
   id="defs39" /><sodipodi:namedview
   pagecolor="#ffffff"
   bordercolor="#666666"
   borderopacity="1"
   objecttolerance="10"
   gridtolerance="10"
   guidetolerance="10"
   inkscape:pageopacity="0"
   inkscape:pageshadow="2"
   inkscape:window-width="1920"
   inkscape:window-height="1017"
   id="namedview37"
   showgrid="false"
   inkscape:zoom="25.598589"
   inkscape:cx="3.5436319"
   inkscape:cy="21.976162"
   inkscape:window-x="-8"
   inkscape:window-y="-8"
   inkscape:window-maximized="1"
   inkscape:current-layer="Capa_1" />
<g
   id="g4"
   style="display:inline">
	<path
   style="display:inline;fill:#010002"
   d="m 25.206,3.074 c 0.128,0.19 0.003,0.581 0.003,0.581 l -0.527,-0.229 0.29,-0.513 c 0,0 0.108,-0.029 0.234,0.161 z M 19.79,1.851 C 19.725,2.328 21.242,1.82 21.242,1.82 L 21.074,0.627 c 0,0 -0.942,0.603 -1.284,1.224 z m 2.415,-0.305 0.647,-0.198 c 0,0 -0.769,-1.216 -1.637,-0.733 l 0.116,0.438 c 0.002,-10e-4 0.698,-0.129 0.874,0.493 z M 21.32,1.18 21.454,1.741 22.009,1.545 c 0,0 0.048,-0.103 -0.117,-0.262 C 21.726,1.124 21.32,1.18 21.32,1.18 Z m -4.252,0.379 -0.874,-0.83 c 0,0 -0.365,1.059 -0.245,1.757 0.247,0.415 1.119,-0.927 1.119,-0.927 z m 0.581,-0.813 0.385,-0.558 c 0,0 -1.359,-0.474 -1.738,0.441 l 0.365,0.272 c 0,0 0.462,-0.534 0.988,-0.155 z m -0.919,0.263 0.451,0.354 0.312,-0.5 C 17.494,0.864 17.469,0.756 17.239,0.734 17.012,0.713 16.73,1.009 16.73,1.009 Z m 1.913,3.578 0.005,0.002 C 18.654,4.591 18.718,4.62 18.81,4.671 18.801,4.578 18.786,4.486 18.755,4.4 18.706,4.252 18.627,4.114 18.521,3.987 l 0.11,0.537 c 0.003,0.009 0.007,0.032 0.012,0.063 z m 0.911,0.674 c 0.01,0.01 0.017,0.022 0.024,0.033 0.043,-0.02 0.08,-0.036 0.102,-0.049 0.052,-0.029 -0.015,-0.014 -0.126,0.016 z m 5.784,-1.6 c 0,0 0.243,-0.653 -0.328,-0.938 -0.154,0.297 -0.361,0.652 -0.637,1.062 0,0 -0.209,0.391 -0.198,0.752 0.114,-0.409 0.391,-0.917 0.391,-0.917 l 1.146,0.371 c 0,0 -0.757,0.824 -1.428,1.053 -0.026,-10e-4 -0.05,-0.007 -0.07,-0.015 -0.076,0.032 -0.181,0.072 -0.302,0.108 0.381,0.028 1.136,-0.006 1.646,-0.613 0,0 -1.215,2.259 -2.61,0.637 0.062,0.264 -0.154,0.714 -0.354,0.906 -0.057,0.004 -0.113,0.007 -0.173,0.012 0.018,0.04 0.031,0.081 0.044,0.127 0.267,-0.024 0.499,-0.057 0.61,-0.109 0,0 -0.278,0.707 -1.604,1.884 0,0 -0.623,0.673 -0.314,1.136 0,0 -0.203,0.054 -0.47,0.06 0.36,0.123 1.102,0.277 1.747,-0.183 0,0 -0.341,0.369 -0.802,0.616 0.251,-0.036 0.596,-0.074 1.095,-0.123 0.899,-0.057 0.335,0.846 -0.047,1.089 -0.601,-0.079 -1.297,-0.225 -1.297,-0.225 -0.052,-0.007 -0.146,0.034 -0.261,0.103 0.154,0.03 0.739,0.15 1.258,0.216 0.327,0.043 0.625,0.063 0.768,0.028 0,0 -0.412,0.64 -1.944,1.53 0,0 -0.744,0.538 -0.535,1.051 0,0 -0.21,0.012 -0.473,-0.034 0.331,0.193 1.025,0.491 1.751,0.167 0,0 -2.184,1.585 -2.669,-0.712 l 0.024,0.015 C 19.236,12.6 19.193,12.46 19.184,12.29 c 0,0 -0.004,-0.046 -0.003,-0.122 -0.162,0.037 -0.489,0.098 -0.585,0.015 -0.029,-0.026 -0.187,-0.031 -0.399,-0.025 l 0.1,0.048 c 0,0 -0.114,0.094 -0.289,0.218 0.068,0.062 0.151,0.112 0.203,0.185 0.104,0.138 0.176,0.295 0.213,0.48 0.034,0.184 0.048,0.383 -0.029,0.647 -0.281,-0.016 -0.471,-0.094 -0.639,-0.188 -0.13,-0.075 -0.224,-0.178 -0.312,-0.284 -0.534,0.517 -1.569,1.196 -2.399,-0.245 l 0.029,0.007 c -0.101,-0.09 -0.185,-0.208 -0.246,-0.367 0,0 -0.02,-0.042 -0.04,-0.116 -0.062,0.037 -0.153,0.087 -0.246,0.13 0.01,0.003 0.012,0.003 0.021,0.007 0.026,0.015 0.072,0.047 0.072,0.047 0,0 -0.022,10e-4 -0.033,0.006 -0.008,0.004 -0.013,0.013 -0.013,0.013 0,0 0.037,0.02 0.06,0.046 0.021,0.024 0.036,0.062 0.036,0.062 0,0 -0.009,-0.002 -0.023,0 -0.014,0.003 -0.017,0.012 -0.017,0.012 0,0 0.033,0.029 0.049,0.054 0.016,0.023 0.032,0.074 0.032,0.074 0,0 -0.028,-0.007 -0.041,-0.008 -0.012,-0.001 -0.028,10e-4 -0.028,10e-4 0,0 0.023,0.037 0.036,0.066 0.013,0.029 0.033,0.093 0.033,0.093 0,0 -0.009,-0.006 -0.026,-0.011 -0.019,-0.005 -0.025,-0.006 -0.025,-0.006 0,0 0.02,0.044 0.029,0.069 0.009,0.027 0.023,0.071 0.023,0.071 0,0 -0.01,-0.009 -0.024,-0.011 -0.018,-0.004 -0.026,0.002 -0.026,0.002 0,0 0.018,0.04 0.021,0.066 0.005,0.028 0.007,0.062 0.007,0.062 0,0 -0.062,-0.013 -0.094,-0.028 -0.032,-0.017 -0.076,-0.051 -0.076,-0.051 0,0 -0.004,0.015 -0.006,0.033 0,0.013 0.006,0.049 0.006,0.049 0,0 -0.049,-0.028 -0.069,-0.046 -0.022,-0.017 -0.054,-0.058 -0.054,-0.058 0,0 -0.004,0.004 -0.006,0.021 0,0.015 0.002,0.033 0.002,0.033 0,0 -0.063,-0.039 -0.096,-0.062 -0.03,-0.022 -0.071,-0.074 -0.071,-0.074 0,0 -10e-4,0.023 -0.003,0.038 0.001,0.015 0.001,0.034 0.001,0.034 0,0 -0.036,-0.036 -0.059,-0.062 -0.023,-0.028 -0.052,-0.077 -0.052,-0.077 0,0 -0.004,0.01 -0.009,0.025 -0.005,0.011 -0.011,0.026 -0.011,0.026 0,0 -0.031,-0.062 -0.039,-0.086 -0.008,-0.023 -0.02,-0.079 -0.02,-0.079 0,0 -0.013,0.012 -0.019,0.027 -0.008,0.017 -0.012,0.033 -0.012,0.033 0,0 -0.027,-0.175 0.008,-0.305 -0.159,0.048 -0.385,0.132 -0.64,0.235 l -0.012,0.012 c 0.048,0.007 0.094,0.014 0.141,0.023 0.118,0.025 0.209,0.085 0.308,0.136 l 0.015,-0.015 c 0,0 1.91,0.607 2.779,2.084 0,0 0.562,0.652 -0.869,1.215 -0.132,1.174 -1.043,1.043 -1.043,1.043 L 14.666,17.491 14.369,17.21 c -0.005,-0.004 -0.462,-0.436 -0.945,-0.92 -1.316,-1.318 -1.248,-1.406 -1.168,-1.509 0.012,-0.015 0.027,-0.027 0.044,-0.035 -0.01,-0.004 -0.016,-0.009 -0.023,-0.013 l 0.887,-0.888 c -0.044,-0.054 -0.101,-0.09 -0.137,-0.153 -0.037,-0.068 -0.07,-0.141 -0.098,-0.219 l -0.426,0.425 0.014,0.007 -0.017,-0.003 -0.5,0.499 -0.564,-0.565 -0.454,0.179 c -1.296,1.582 -3.036,2.148 -3.036,2.148 0.608,-0.773 0.845,-0.938 0.147,-2.014 -0.697,-1.073 -0.209,-1.59 -0.209,-1.59 0.599,0.761 1.979,1.014 2.769,1.098 l 0.194,-0.089 c -0.019,-0.009 -0.041,-0.021 -0.065,-0.037 l -0.078,0.036 0.054,-0.049 C 10.573,13.395 10.249,13.109 9.636,12.497 9.101,11.963 8.239,11.154 8.239,11.154 L 8.224,11.143 c 0,0 -0.075,-0.966 1.098,-1.097 0.564,-1.432 1.216,-0.868 1.216,-0.868 0.747,0.439 1.27,1.144 1.606,1.734 0.004,-0.019 0.009,-0.044 0.016,-0.067 0.011,-0.038 0.042,-0.113 0.042,-0.113 0,0 0.005,0.014 0.015,0.033 0.017,0.018 0.021,0.024 0.021,0.024 0,0 0.016,-0.056 0.028,-0.088 0.013,-0.031 0.033,-0.082 0.033,-0.082 0,0 0.003,0.015 0.016,0.031 0.013,0.017 0.026,0.02 0.026,0.02 0,0 0.016,-0.05 0.032,-0.078 0.017,-0.028 0.043,-0.062 0.043,-0.062 0,0 0.044,0.062 0.063,0.102 0.016,0.039 0.028,0.104 0.028,0.104 0,0 0.018,-0.009 0.029,-0.023 0.014,-0.014 0.036,-0.048 0.036,-0.048 0,0 0.021,0.065 0.026,0.095 0.008,0.033 0,0.095 0,0.095 0,0 0.012,-0.002 0.025,-0.016 0.011,-0.014 0.024,-0.031 0.024,-0.031 0,0 0.025,0.084 0.034,0.131 0.013,0.046 0.008,0.125 0.008,0.125 0,0 0.021,-0.019 0.033,-0.034 0.011,-0.011 0.026,-0.03 0.026,-0.03 0,0 0.005,0.062 0.005,0.105 -0.002,0.043 -0.016,0.11 -0.016,0.11 0,0 0.011,-0.008 0.026,-0.018 0.015,-0.008 0.03,-0.016 0.03,-0.016 0,0 -0.019,0.082 -0.033,0.109 -0.013,0.026 -0.045,0.087 -0.045,0.087 0,0 0.021,-0.002 0.041,-0.011 0.021,-0.01 0.035,-0.021 0.035,-0.021 0,0 -0.143,0.216 -0.294,0.292 0.07,0.169 0.104,0.267 0.113,0.295 l 0.387,0.107 -0.343,0.398 -0.879,0.689 -0.281,0.075 -0.226,0.104 -0.125,0.125 0.097,-0.044 0.279,-0.075 0.229,-0.064 0.21,-0.083 0.921,-0.919 0.263,0.264 c 0.057,-0.07 0.109,-0.134 0.16,-0.194 l -0.275,-0.063 -0.005,0.014 V 12.25 L 12.979,12.242 13,12.117 13.146,11.252 13.24,10.979 13.318,10.754 13.6,9.525 C 13.527,9.306 13.427,8.982 13.384,8.802 13.351,8.986 13.288,9.165 13.166,9.264 13.145,9.281 13.119,9.295 13.095,9.31 l 0.063,0.238 0.075,1.114 -0.096,0.275 -0.146,0.863 -0.34,-2.331 c -0.185,0.033 -0.336,0.033 -0.336,0.033 0,0 0.038,-0.021 0.07,-0.069 0.033,-0.049 0.024,-0.051 0.024,-0.051 0,0 -0.075,0.022 -0.211,0.002 -0.136,-0.02 -0.232,-0.102 -0.232,-0.102 0,0 0.034,-0.003 0.062,-0.02 0.028,-0.017 0.034,-0.036 0.034,-0.036 0,0 -0.078,-0.025 -0.141,-0.06 -0.064,-0.035 -0.178,-0.133 -0.178,-0.133 0,0 0.063,0.004 0.088,-0.007 0.024,-0.01 0.033,-0.034 0.033,-0.034 0,0 -0.09,-0.055 -0.144,-0.125 -0.054,-0.072 -0.086,-0.176 -0.086,-0.176 0,0 0.033,0.013 0.07,0.009 0.037,-0.004 0.04,-0.025 0.04,-0.025 0,0 -0.076,-0.082 -0.114,-0.148 -0.04,-0.066 -0.072,-0.199 -0.072,-0.199 0,0 0.075,0.023 0.105,0.025 0.031,0.002 0.08,0.002 0.08,0.002 0,0 -0.059,-0.104 -0.086,-0.18 -0.03,-0.077 -0.074,-0.248 -0.074,-0.248 0,0 0.026,0.018 0.072,0.035 0.044,0.015 0.062,0.015 0.062,0.015 0,0 -0.044,-0.115 -0.064,-0.185 -0.021,-0.07 -0.052,-0.188 -0.052,-0.188 0,0 0.026,0.025 0.067,0.036 0.043,0.01 0.066,-0.005 0.066,-0.005 0,0 -0.036,-0.105 -0.044,-0.176 C 11.685,7.39 11.685,7.3 11.685,7.3 c 0,0 0.158,0.043 0.24,0.09 0.083,0.045 0.189,0.141 0.189,0.141 0,0 0.017,-0.04 0.021,-0.078 0.005,-0.041 -0.004,-0.129 -0.004,-0.129 0,0 0.122,0.082 0.174,0.128 0.054,0.045 0.123,0.161 0.123,0.161 0,0 0.021,-0.02 0.024,-0.061 0.003,-0.039 0,-0.084 0,-0.084 0,0 0.155,0.11 0.235,0.176 0.078,0.064 0.174,0.205 0.174,0.205 0,0 0.011,-0.061 0.014,-0.098 0.004,-0.041 0.006,-0.09 0.006,-0.09 0,0 0.089,0.101 0.145,0.177 0.056,0.075 0.123,0.205 0.123,0.205 0,0 0.007,-0.027 0.022,-0.062 0.013,-0.035 0.029,-0.067 0.029,-0.067 0,0 0.073,0.165 0.088,0.229 0.015,0.064 0.038,0.21 0.038,0.21 0,0 0.034,-0.029 0.055,-0.074 0.021,-0.041 0.031,-0.078 0.031,-0.078 0,0 0.022,0.26 -0.015,0.532 0.055,0.119 0.166,0.407 0.257,0.58 L 14.025,7.68 C 13.986,7.661 13.947,7.638 13.906,7.617 l 0.011,0.017 C 13.576,7.563 13.322,7.452 13.133,7.318 13.128,7.313 13.122,7.309 13.117,7.306 13.092,7.287 13.068,7.268 13.045,7.249 L 13.049,7.144 C 12.939,7.05 12.838,6.82 12.839,6.257 12.643,5.214 12.488,5.706 12.862,3.699 c 0.194,-0.881 0.906,-0.086 1.034,0.348 -0.241,0.555 -0.578,1.184 -0.578,1.184 -0.022,0.047 -0.007,0.149 0.025,0.277 0.073,-0.139 0.35,-0.668 0.559,-1.147 0.131,-0.302 0.232,-0.581 0.24,-0.729 0,0 0.498,0.575 0.928,2.295 0,0 0.308,0.864 0.858,0.806 0,0 -0.048,0.205 -0.164,0.444 0.276,-0.266 0.759,-0.848 0.647,-1.635 0,0 0.914,2.539 -1.427,2.365 l 0.021,-0.021 c -0.131,0.031 -0.275,0.036 -0.44,-0.004 0,0 -0.045,-0.009 -0.118,-0.031 -0.01,0.166 -0.043,0.499 -0.149,0.566 -0.057,0.034 -0.155,0.427 -0.255,0.884 0.035,-0.041 0.07,-0.079 0.107,-0.116 0.138,-0.13 0.288,-0.22 0.448,-0.279 0.163,-0.056 0.335,-0.085 0.521,-0.068 0.187,0.017 0.384,0.062 0.615,0.211 -0.093,0.264 -0.221,0.424 -0.357,0.559 -0.138,0.131 -0.288,0.22 -0.45,0.278 -0.162,0.057 -0.334,0.083 -0.521,0.068 -0.146,-0.015 -0.299,-0.047 -0.469,-0.13 -0.104,0.522 -0.185,0.986 -0.185,0.986 l 0.541,-0.315 -0.61,0.614 -0.239,1.049 c 0.008,-0.009 0.022,-0.025 0.028,-0.031 0.041,-0.037 0.008,0.019 -0.044,0.101 l -0.025,0.109 -0.039,-0.009 c -0.051,0.078 -0.103,0.161 -0.154,0.245 l 0.076,0.076 1.279,-0.502 -0.006,-0.112 h -0.013 l 0.012,-0.007 -0.003,-0.042 0.105,-0.011 c -0.13,-0.317 -0.183,-0.588 -0.176,-0.816 -0.002,-0.007 0,-0.014 -0.002,-0.021 0.004,-0.031 0.006,-0.062 0.01,-0.091 l 0.084,-0.053 c 0.015,-0.145 0.151,-0.361 0.619,-0.677 0.751,-0.75 0.258,-0.602 2.127,-1.422 0.836,-0.335 0.581,0.699 0.294,1.05 -0.595,0.111 -1.306,0.188 -1.306,0.188 -0.052,0.009 -0.127,0.078 -0.215,0.179 0.155,-0.018 0.75,-0.088 1.264,-0.185 0.323,-0.061 0.611,-0.134 0.737,-0.211 0,0 -0.107,0.394 -0.617,1.114 l 0.157,0.103 0.071,-0.094 c 0,0 0.112,-0.015 0.213,0.191 0.028,0.059 0.032,0.13 0.026,0.203 0.049,-0.029 0.092,-0.053 0.117,-0.064 0.062,-0.029 -0.013,0.033 -0.127,0.125 -0.025,0.153 -0.082,0.288 -0.09,0.304 l 0.142,-0.008 c 0.062,-0.143 0.234,-0.634 -0.225,-0.938 l 0.389,-0.556 c 0,0 0.666,0.803 0.41,1.461 l 0.661,-0.038 c 0.009,-0.044 0.019,-0.088 0.029,-0.133 L 19.238,11.6 c -0.026,-0.348 0.009,-0.623 0.084,-0.84 0.003,-0.007 0.005,-0.014 0.008,-0.019 0.011,-0.029 0.022,-0.06 0.035,-0.085 l 0.096,-0.024 C 19.52,10.5 19.718,10.338 20.262,10.179 20.587,10.015 20.741,9.907 20.883,9.825 20.449,9.83 20.006,9.593 19.677,8.828 l 0.028,0.009 c -0.088,-0.101 -0.159,-0.23 -0.201,-0.393 0,0 -0.011,-0.045 -0.025,-0.12 C 19.45,8.337 19.415,8.351 19.377,8.366 19.589,7.931 19.668,7.512 19.68,7.432 L 19.454,7.369 C 19.666,7.022 19.798,6.725 19.808,6.702 L 20.029,6.205 19.88,6.208 c 0.004,-0.043 0.004,-0.082 0.004,-0.123 l 0.25,0.082 C 20.139,6.163 20.144,6.161 20.148,6.159 20.39,5.971 20.517,5.845 20.626,5.745 L 20.53,5.704 20.633,5.644 20.7,5.677 C 20.718,5.663 20.735,5.649 20.753,5.635 20.744,5.61 20.734,5.586 20.725,5.557 20.319,5.8 19.956,6.027 19.886,6.071 19.881,5.922 19.847,5.778 19.786,5.635 L 20.724,5.11 C 20.81,4.964 20.928,4.763 21.026,4.608 20.996,4.603 20.965,4.596 20.935,4.587 20.929,4.586 20.922,4.584 20.916,4.581 20.694,4.515 20.451,4.384 20.184,4.158 L 20.205,4.156 C 20.162,4.138 20.122,4.119 20.082,4.101 L 19.327,5.028 C 19.302,5.008 19.278,4.984 19.253,4.963 19.174,4.901 19.098,4.846 19.026,4.798 19.209,4.568 19.338,4.388 19.333,4.339 19.319,4.214 19.562,3.984 19.687,3.874 19.623,3.83 19.588,3.8 19.588,3.8 19.457,3.693 19.368,3.577 19.315,3.454 L 19.31,3.483 C 19.193,3.353 19.099,3.228 19.027,3.109 18.903,3.547 18.767,3.724 18.651,3.784 L 18.631,3.88 C 18.605,3.893 18.575,3.906 18.548,3.918 18.54,3.921 18.535,3.923 18.528,3.927 18.523,3.929 18.517,3.93 18.51,3.933 L 18.457,3.68 18.177,4.123 C 18.12,3.911 18.024,3.714 17.873,3.594 17.763,3.504 17.365,3.256 16.875,3.805 16.795,3.901 16.722,3.99 16.652,4.072 16.625,4.062 16.594,4.055 16.57,4.041 l 0.017,0.025 C 16.433,4.04 16.296,4.006 16.174,3.965 L 16.135,3.69 15.934,3.821 C 15.892,3.762 15.845,3.705 15.792,3.651 15.68,3.538 15.552,3.455 15.418,3.387 14.991,2.591 15.755,1.431 15.755,1.431 15.467,2.169 15.797,2.85 16.003,3.169 15.944,2.912 15.948,2.701 15.948,2.701 c 0.521,0.186 1.023,-0.582 1.023,-0.582 0.819,-1.573 1.438,-2.014 1.438,-2.014 -0.028,0.144 0.006,0.442 0.062,0.765 0.092,0.515 0.236,1.095 0.275,1.246 0.062,-0.118 0.099,-0.213 0.09,-0.265 0,0 -0.179,-0.689 -0.284,-1.286 0.227,-0.393 1.104,-0.996 1.085,-0.096 -0.018,0.316 -0.03,0.566 -0.045,0.773 0.357,-0.228 0.701,-0.341 0.701,-0.341 -0.422,0.243 -0.645,0.614 -0.764,0.954 -0.027,0.161 -0.059,0.272 -0.101,0.369 -0.011,0.069 -0.02,0.135 -0.026,0.192 0.117,-0.238 0.249,-0.402 0.249,-0.402 0.293,0.47 1.165,0.182 1.165,0.182 1.619,-0.72 2.379,-0.681 2.379,-0.681 -0.111,0.097 -0.269,0.35 -0.426,0.639 -0.289,0.534 -0.577,1.184 -0.577,1.184 -0.101,0.193 -0.207,0.346 -0.321,0.473 0.002,0.007 0.007,0.018 0.012,0.027 C 22.046,3.765 22.214,3.664 22.367,3.526 22.29,3.574 22.212,3.614 22.134,3.649 22.131,3.64 22.126,3.631 22.124,3.621 22.236,3.495 22.344,3.34 22.445,3.15 c 0,0 0.29,-0.653 0.577,-1.186 0.421,-0.166 0.815,-0.208 0.815,-0.208 -0.45,0.145 -0.743,0.449 -0.931,0.747 0.154,-0.104 0.346,-0.197 0.579,-0.272 0,0 1.646,-0.408 1.969,-0.673 0,0 -0.034,0.266 -0.266,0.788 l 0.117,-0.232 c 0,0 1.066,0.968 0.441,1.738 z M 12.564,9.16 c 0.066,0.019 0.184,0.027 0.322,0 L 12.969,9.089 C 12.942,9.025 12.914,8.96 12.882,8.9 12.876,8.883 12.867,8.869 12.86,8.854 12.916,8.749 12.966,8.633 12.974,8.528 12.981,8.408 12.981,8.264 12.954,8.196 12.964,8.268 12.951,8.47 12.916,8.593 12.888,8.683 12.858,8.726 12.821,8.787 12.759,8.679 12.691,8.576 12.619,8.475 12.661,8.379 12.699,8.272 12.696,8.178 12.693,8.077 12.679,7.953 12.654,7.898 12.668,7.96 12.673,8.132 12.652,8.239 12.634,8.324 12.608,8.365 12.579,8.427 12.406,8.213 12.214,8.014 12.014,7.828 c 0.157,0.176 0.304,0.362 0.438,0.555 -0.05,0.002 -0.09,0.008 -0.151,-0.007 -0.084,-0.018 -0.204,-0.081 -0.239,-0.113 0.026,0.041 0.109,0.092 0.181,0.131 0.065,0.033 0.158,0.039 0.242,0.036 0.024,0.038 0.05,0.072 0.074,0.111 0.042,0.06 0.083,0.12 0.121,0.182 -0.082,0.016 -0.131,0.034 -0.229,0.029 -0.119,-0.006 -0.297,-0.061 -0.357,-0.094 0.048,0.046 0.174,0.095 0.28,0.127 0.099,0.028 0.225,0.015 0.342,-0.004 0.035,0.058 0.068,0.116 0.101,0.176 0.021,0.045 0.043,0.091 0.063,0.136 -0.108,0.023 -0.124,0.03 -0.235,0.022 -0.128,-0.011 -0.314,-0.048 -0.381,-0.074 0.059,0.049 0.221,0.098 0.3,0.119 z m 0.65,-0.585 c -0.003,0.073 -0.021,0.226 -0.089,0.368 -0.037,0.076 -0.058,0.116 -0.083,0.154 l 0.016,0.061 C 13.12,9.054 13.158,8.971 13.175,8.902 13.2,8.811 13.232,8.644 13.214,8.575 Z m -0.589,2.854 c -0.022,0.026 -0.072,0.08 -0.136,0.112 -0.014,0.007 -0.018,0.006 -0.027,0.011 0.002,0.005 0.004,0.01 0.006,0.014 0.015,-0.008 0.042,-0.017 0.052,-0.026 0.032,-0.027 0.091,-0.079 0.105,-0.111 z m -0.228,-0.254 c -0.004,0.02 -0.005,0.039 -0.006,0.06 -0.002,0.035 -0.002,0.068 -0.007,0.102 -0.01,-0.005 -0.018,-0.012 -0.027,-0.016 0.008,0.017 0.012,0.028 0.02,0.044 10e-4,0 0.002,0.002 0.004,0.003 0,10e-4 0,0.003 0,0.004 0.012,0.026 0.021,0.048 0.033,0.073 0,-0.004 10e-4,-0.007 0.002,-0.011 0.051,-0.024 0.101,-0.051 0.133,-0.087 0.037,-0.042 0.077,-0.096 0.088,-0.128 -0.019,0.031 -0.08,0.101 -0.126,0.135 -0.035,0.026 -0.06,0.033 -0.09,0.045 0.007,-0.057 0.012,-0.114 0.014,-0.172 0.041,-0.024 0.087,-0.051 0.11,-0.087 0.028,-0.039 0.058,-0.086 0.065,-0.115 -0.016,0.027 -0.061,0.092 -0.098,0.125 -0.03,0.027 -0.052,0.035 -0.081,0.049 -0.005,-0.127 -0.017,-0.254 -0.039,-0.379 0.01,0.108 0.011,0.218 0.006,0.326 -0.021,-0.013 -0.034,-0.021 -0.055,-0.045 -0.026,-0.028 -0.052,-0.087 -0.057,-0.109 -10e-4,0.025 0.013,0.066 0.03,0.1 0.015,0.031 0.049,0.059 0.081,0.083 z M 10.73,13.207 C 10.724,13.198 10.717,13.19 10.712,13.179 10.533,12.886 10.319,12.615 10.079,12.374 9.754,12.048 9.424,11.825 9.161,11.68 c 0.184,0.189 0.409,0.422 0.639,0.651 0.481,0.481 0.763,0.737 0.93,0.876 z m 3.392,3.442 c -0.141,-0.264 -0.36,-0.602 -0.692,-0.934 -0.233,-0.232 -0.498,-0.439 -0.787,-0.617 -0.015,-0.008 -0.026,-0.017 -0.04,-0.023 0.145,0.178 0.428,0.492 0.984,1.051 0.192,0.189 0.378,0.372 0.535,0.523 z m 3.557,-4.944 c -0.044,0.037 -0.09,0.075 -0.124,0.108 l 0.275,-0.016 z m -3.011,0.269 h 0.006 c 0,-0.003 -10e-4,-0.005 -10e-4,-0.008 z m -0.537,0.775 c -0.004,10e-4 -0.012,0.004 -0.017,0.005 -0.008,0.02 -0.022,0.045 -0.025,0.061 -0.007,0.033 -0.015,0.1 -0.007,0.125 0,-0.029 0.004,-0.088 0.025,-0.144 0.011,-0.025 0.018,-0.034 0.024,-0.047 z m 0.427,0.445 c -0.062,-0.062 -0.125,-0.13 -0.18,-0.199 0.02,-0.004 0.034,-0.007 0.058,-10e-4 0.033,0.003 0.08,0.025 0.096,0.036 -0.011,-0.015 -0.044,-0.033 -0.072,-0.045 -0.028,-0.011 -0.062,-0.013 -0.095,-0.009 -0.009,-0.013 -0.02,-0.027 -0.03,-0.04 -0.018,-0.021 -0.034,-0.044 -0.052,-0.066 0.032,-0.008 0.049,-0.018 0.087,-0.018 0.046,0 0.117,0.015 0.139,0.026 -0.019,-0.015 -0.067,-0.032 -0.107,-0.04 -0.038,-0.009 -0.088,-10e-4 -0.133,0.009 -0.014,-0.02 -0.027,-0.043 -0.041,-0.064 -0.007,-0.013 -0.016,-0.027 -0.022,-0.041 -0.01,0 -0.021,10e-4 -0.035,0.003 0.01,0.021 0.02,0.042 0.032,0.062 0.003,0.005 0.007,0.012 0.011,0.017 -0.019,0.043 -0.035,0.087 -0.035,0.127 0,0.046 0.002,0.101 0.016,0.127 -0.007,-0.027 -0.007,-0.105 0.006,-0.153 0.006,-0.034 0.016,-0.054 0.031,-0.077 0.024,0.041 0.054,0.079 0.083,0.114 -0.013,0.038 -0.024,0.081 -0.021,0.116 0.003,0.039 0.01,0.086 0.022,0.106 -0.008,-0.025 -0.013,-0.089 -0.008,-0.13 0.004,-0.034 0.014,-0.05 0.023,-0.074 0.07,0.077 0.146,0.148 0.227,0.214 z m -0.156,-0.469 c -0.004,0.001 -0.008,0.003 -0.012,0.004 0.017,0.003 0.034,0.006 0.043,0.009 -0.005,-0.005 -0.019,-0.009 -0.031,-0.013 z m 2.825,0.163 c -0.163,0.076 -0.33,0.14 -0.488,0.171 -0.258,-0.046 -0.096,-0.446 0.105,-0.803 -0.109,0.01 -0.207,0.02 -0.298,0.029 -0.045,0.097 -0.085,0.207 -0.108,0.322 l 0.161,0.154 -0.168,-0.092 c -0.022,0.166 -0.005,0.334 0.109,0.469 0,0 -0.195,0.077 -0.459,0.114 0.282,0.06 0.782,0.111 1.264,-0.097 -0.054,-0.079 -0.083,-0.175 -0.118,-0.267 z m 0.18,-1.11 c 0.06,-0.04 0.121,-0.08 0.188,-0.124 l -0.243,-0.147 0.275,-0.362 -0.432,0.261 c -0.11,0.14 -0.234,0.29 -0.373,0.448 l 0.279,-0.016 c 0.062,-0.09 0.108,-0.155 0.108,-0.155 z M 22.173,3.987 C 22.149,4.033 22.182,4.01 22.24,3.951 22.206,3.953 22.173,3.987 22.173,3.987 Z M 20.912,5 22.371,4.185 C 22.36,4.142 22.349,4.098 22.34,4.054 L 22.335,4.072 C 22.33,4.066 22.325,4.059 22.322,4.051 22.315,4.028 22.307,4.01 22.3,3.996 22.227,4.075 22.15,4.158 22.07,4.239 21.819,4.496 21.492,4.676 21.083,4.616 21.022,4.74 20.954,4.888 20.912,5 Z m 0.057,0.496 -0.086,-0.044 -0.102,0.06 0.087,0.039 c 0.03,-0.019 0.065,-0.037 0.101,-0.055 z m 0.257,0.762 C 21.192,6.234 21.162,6.207 21.129,6.182 21.102,6.204 21.072,6.229 21.04,6.258 c 0.039,0 0.102,-0.002 0.186,0 z m 0.661,-0.094 -0.016,0.013 0.016,0.024 z M 21.889,6.099 C 21.868,6.1 21.847,6.101 21.827,6.102 l 0.022,0.036 0.038,-0.01 z m 0.439,0.084 -0.175,-0.091 c -0.049,0.001 -0.1,0.003 -0.151,0.004 l 0.258,0.127 c 0.015,0 0.026,-10e-4 0.04,-10e-4 z M 22.797,4.98 C 22.72,4.909 22.646,4.83 22.586,4.72 c 0,0 -0.023,-0.039 -0.056,-0.109 -0.13,0.106 -0.399,0.303 -0.521,0.27 -0.063,-0.019 -0.422,0.171 -0.827,0.402 0.054,-0.002 0.107,-0.001 0.157,10e-4 0.037,0.003 0.07,0.015 0.105,0.021 0.231,-0.081 0.542,-0.179 0.979,-0.313 0.167,-0.045 0.288,-0.044 0.374,-0.012 z m -4.746,4.113 c 0.077,0.084 0.162,0.161 0.256,0.222 0.146,0.093 0.312,0.155 0.496,0.182 C 18.995,9.52 19.199,9.521 19.465,9.43 19.439,9.159 19.35,8.977 19.249,8.819 19.196,8.74 19.139,8.672 19.074,8.611 18.994,8.701 18.904,8.785 18.8,8.855 18.58,9.005 18.33,9.084 18.051,9.093 Z M 21.36,9.06 C 22.066,9.006 23.006,8.397 23.006,8.397 L 21.988,7.75 c 0,0 -1.091,1.172 -0.628,1.31 z m 1.276,-2.074 c 0.495,0.419 0.09,1 0.09,1 l 0.353,0.287 c 0.797,-0.592 0.008,-1.794 0.008,-1.794 z m 0.111,0.395 C 22.67,7.165 22.558,7.167 22.558,7.167 l -0.407,0.425 0.452,0.353 c 0,-0.001 0.22,-0.346 0.144,-0.564 z M 18.482,3.938 c 0.004,0.002 0.006,0.004 0.008,0.008 0.012,0.014 0.02,0.028 0.028,0.04 L 18.508,3.93 C 18.499,3.933 18.49,3.936 18.482,3.938 Z m 1.4,2.13 c -0.008,0.006 -0.016,0.009 -0.016,0.009 l 0.016,0.005 C 19.88,6.078 19.88,6.073 19.882,6.068 Z M 17.834,4.889 c -0.422,0.306 -0.93,0.621 -1.062,0.705 -0.021,0.062 -0.037,0.135 -0.056,0.212 0.106,0.505 0.145,1.203 -0.23,1.753 -0.08,0.116 -0.178,0.216 -0.284,0.305 l -0.49,0.518 c 0.029,0.015 0.056,0.024 0.084,0.041 l 0.298,0.169 c 0.008,-0.002 0.017,-0.008 0.021,-0.008 0.127,-0.003 0.32,-0.274 0.416,-0.411 0.05,0.055 0.086,0.086 0.086,0.086 0.122,0.119 0.25,0.19 0.378,0.229 L 16.967,8.495 C 18.896,9.833 19.399,7.183 19.399,7.183 19.092,7.917 18.382,8.174 18.01,8.26 18.232,8.115 18.376,7.963 18.376,7.963 17.872,7.732 18.046,6.832 18.046,6.832 18.551,5.133 18.414,4.385 18.414,4.385 18.333,4.507 18.101,4.697 17.834,4.889 Z m -3.591,5.482 0.147,0.173 0.664,-0.174 -0.627,-0.005 c 0,0 0.004,-0.006 0.01,-0.009 -0.064,0.005 -0.13,0.017 -0.194,0.015 z M 17.276,3.788 C 16.683,4.466 16.428,4.777 16.295,5 c 0.004,0.064 0.008,0.131 0.009,0.202 l 0.214,-0.064 c 0.021,0.052 0.1,0.247 0.165,0.516 0.019,-0.014 0.031,-0.027 0.054,-0.041 0,0 0.013,-0.008 0.035,-0.021 0.036,-0.129 0.076,-0.224 0.116,-0.255 0,0 0.61,-0.37 1.104,-0.725 0.106,-0.438 -0.101,-1.483 -0.716,-0.824 z m 1.244,4.016 c 0.571,-0.42 1.048,-1.432 1.048,-1.432 L 18.363,6.357 c 0,0 -0.31,1.573 0.157,1.447 z m 0.594,-1.634 0.45,0.06 C 19.927,5.307 18.622,4.701 18.622,4.701 L 18.51,5.37 c 0.641,0.093 0.604,0.8 0.604,0.8 z M 18.988,6.2 c 0,0 0.005,-0.41 -0.175,-0.556 C 18.633,5.502 18.539,5.563 18.539,5.563 L 18.415,6.14 Z m -3.012,0.324 c 0.278,-0.65 0.175,-1.765 0.175,-1.765 l -1.046,0.6 c -0.001,0 0.533,1.511 0.871,1.165 z M 15.656,4.816 16.074,4.638 C 15.92,3.659 14.488,3.8 14.488,3.8 l 0.241,0.634 c 0.599,-0.245 0.926,0.381 0.927,0.382 z M 15.131,4.518 C 14.904,4.484 14.853,4.586 14.853,4.586 l 0.188,0.559 0.523,-0.238 c -10e-4,0 -0.207,-0.356 -0.433,-0.389 z m 5.749,8.75 c 0.704,0.085 1.745,-0.328 1.745,-0.328 l -0.869,-0.834 c 0,-10e-4 -1.302,0.933 -0.876,1.162 z m 1.66,-1.783 c 0.403,0.509 -0.109,0.996 -0.109,0.996 l 0.288,0.353 c 0.896,-0.422 0.362,-1.757 0.362,-1.757 z m -0.112,0.162 -0.484,0.336 0.375,0.436 c 0.001,-0.001 0.283,-0.297 0.254,-0.524 -0.035,-0.227 -0.145,-0.248 -0.145,-0.248 z m -11.524,6.19 c -0.065,0.046 -0.151,-0.122 -0.229,-0.062 0,0 -0.845,1.052 -1.366,0.664 -0.522,-0.387 0.229,-1.72 0.229,-1.72 0.008,-0.024 0.299,-0.403 0.299,-0.403 0,0 -0.063,-0.625 -0.696,0.006 C 8.511,16.954 7.792,16.82 7.449,16.607 7.101,16.394 7.955,15.289 7.955,15.289 8.017,15.215 8.085,15.127 8.133,15.062 8.103,14.999 8.045,14.892 7.936,14.722 7.781,14.484 7.675,14.263 7.602,14.054 4.644,18.371 1.486,22.603 0.134,23.11 l 3.045,2.966 c 1.642,-2.569 4.942,-5.413 8.309,-7.899 -0.08,-0.044 -0.162,-0.091 -0.244,-0.146 -0.171,-0.108 -0.276,-0.166 -0.34,-0.194 z m 1.159,-3.309 c -1.833,1.308 -2.466,3.291 -2.466,3.291 0.775,-0.609 0.938,-0.844 2.014,-0.146 1.076,0.697 1.594,0.209 1.594,0.209 -1.098,-0.863 -1.142,-3.354 -1.142,-3.354 z"
   id="path2"
   inkscape:connector-curvature="0" />
</g>
<g
   id="g6">
</g>
<g
   id="g8">
</g>
<g
   id="g10">
</g>
<g
   id="g12">
</g>
<g
   id="g14">
</g>
<g
   id="g16">
</g>
<g
   id="g18"
   style="display:inline">
</g>
<g
   id="g20">
</g>
<g
   id="g22">
</g>
<g
   id="g24"
   style="display:inline">
</g>
<g
   id="g26"
   style="display:inline">
</g>
<g
   id="g28"
   style="display:inline">
</g>
<g
   id="g30">
</g>
<g
   id="g32"
   style="display:inline">
</g>
<g
   id="g34"
   style="display:inline">
</g>
<path
   style="fill:#ff0000;stroke:none;stroke-width:0.2;stroke-linecap:butt;stroke-linejoin:miter;stroke-miterlimit:4;stroke-dasharray:none;stroke-opacity:1"
   d="m -3.343379,-4.4205659 c 3.37909244,-1.855571 3.69496089,-1.0286095 6.8201331,-2.1224198 -0.7237474,2.8410911 -4.44781797,2.5377735 -5.0002756,7.34415491 L -0.56471255,-1.7491383 C 0.84161496,-1.436621 4.5702276,-0.45797183 4.5702276,-0.45797183 3.2127803,0.83982731 2.2169191,2.0707705 -1.3672629,2.3637554 -0.11719398,2.520014 2.3536454,2.1977306 3.3302618,1.3187759 3.1349385,3.5063965 -0.28767579,4.4502008 -1.8262725,4.4439482 c -1.5385967,-0.00625 -1.7952644,0.060605 -4.1017887,-2.5392025 -2.3065244,-2.59980743 1.5955985,-8.1392287 4.0363005,-8.4655388 0,0 -0.7093899,0.6948351 -1.4516183,2.1402272 z"
   id="path4559"
   inkscape:connector-curvature="0"
   sodipodi:nodetypes="ccccccczzcc" /><path
   style="fill:#ff0000;stroke:none;stroke-width:0.2;stroke-linecap:butt;stroke-linejoin:miter;stroke-miterlimit:4;stroke-dasharray:none;stroke-opacity:1"
   d="m 3.0763415,-5.6444988 c 1.3232415,0.1562586 1.8667167,3.3746408 1.2988997,4.93722702 L 2.8898028,-1.1376771 C 3.1632554,-1.7236469 2.6075657,-3.8572909 1.5918847,-4.1893404 Z"
   id="path4561"
   inkscape:connector-curvature="0"
   sodipodi:nodetypes="ccccc" /><path
   style="fill:#ff0002;fill-opacity:1;stroke:none;stroke-width:0.2;stroke-linecap:butt;stroke-linejoin:miter;stroke-miterlimit:4;stroke-dasharray:none;stroke-opacity:1"
   d="M -0.22462171,-1.9333565 1.4844569,-3.6619676 c 1.1524072,0.4297112 1.2793673,1.8262727 1.2207703,2.4708395 z"
   id="path4563"
   inkscape:connector-curvature="0"
   sodipodi:nodetypes="cccc" /></svg>