<svg id="icon_build" xmlns="http://www.w3.org/2000/svg" viewBox="0 0 159.5 154.18">
  <defs>
    <style>
      .cls-1 {
        fill: #1e2234;
      }

      .cls-2, .cls-3, .cls-4, .cls-5, .cls-6 {
        fill: none;
        stroke-miterlimit: 10;
        stroke-width: 3px;
      }

      .cls-2 {
        stroke: #1e2234;
      }

      .cls-3, .cls-4 {
        stroke: #81af41;
      }

      .cls-3, .cls-4, .cls-5, .cls-6 {
        stroke-linecap: round;
      }

      .cls-4, .cls-6 {
        stroke-dasharray: 4.611 10.76;
      }

      .cls-5, .cls-6 {
        stroke: #00b5c8;
      }
    </style>
  </defs>
  <g id="Group_764" data-name="Group 764">
    <g id="Group_763" data-name="Group 763">
      <g id="Group_762" data-name="Group 762">
        <path id="Path_1212" data-name="Path 1212" class="cls-1" d="M70.31,41.62l2.97,4.83.98,1.57,1.83-.17a36.182,36.182,0,0,1,8.23.03l1.83.22,1.01-1.52,3.29-4.87,7.22,3.22.46.26-1.48,5.8-.5,2,1.68,1.17a24.694,24.694,0,0,1,5.53,5.6l1.14,1.46,1.82-.35,5.5-1.22,3.2,8.12-4.8,2.9-1.59.97.18,1.86a36.946,36.946,0,0,1-.05,8.21l-.22,1.83,1.54,1.02,4.79,3.2-3.35,7.68-5.61-1.34-1.98-.48-1.17,1.68a22.783,22.783,0,0,1-5.32,5.5l-1.62,1.1.38,1.95,1.12,5.54-8.04,3.15-3.1-4.8-.99-1.6-1.84.19a37.58,37.58,0,0,1-3.82.19,38.523,38.523,0,0,1-4.42-.25l-1.83-.22-1.01,1.52-3.21,4.82-7.7-3.36,1.37-5.68.42-1.77-1.4-1.2a38.4,38.4,0,0,1-5.62-5.99L55,92.9l-1.83.37-5.56,1.1-3.13-8.02L49.3,83.4l1.58-1.01-.19-1.84a38.943,38.943,0,0,1,.11-8.22l.22-1.83-1.51-1.01L44.7,66.25l3.35-7.68,5.63,1.35,1.98.48,1.17-1.68a24.887,24.887,0,0,1,5.56-5.52l1.46-1.14-.47-1.87-1.06-5.46,7.99-3.11m1.24-3.71-2.34.92-8,3.14-2.33.91.48,2.45,1.06,5.46.02.08.01.05a27.219,27.219,0,0,0-6.06,6.06l-.01.02-.01.02-5.63-1.35-2.44-.59-1.01,2.3-3.35,7.68-1,2.29,2.07,1.4,4.8,3.24V72a42.218,42.218,0,0,0-.12,8.85v.03L42.9,83.81l-2.14,1.31.91,2.34,3.13,8.02.91,2.34,2.47-.49,5.56-1.1a40.978,40.978,0,0,0,6.05,6.44l.01.01-1.37,5.66-.59,2.45,2.31,1.01,7.7,3.36,2.3,1.01,1.39-2.09,3.2-4.8h.01a42.239,42.239,0,0,0,4.77.27c1.36,0,2.74-.07,4.1-.2v.01l.01.02.01.02,3.1,4.8,1.33,2.06,2.28-.9,8.04-3.15,2.34-.92-.5-2.47-1.11-5.53.03-.02.04-.03a25.837,25.837,0,0,0,6.01-6.2l5.61,1.34,2.44.58,1-2.3,3.35-7.68,1-2.3-2.09-1.39-4.79-3.2-.01-.01h0a39.59,39.59,0,0,0,.06-8.84l4.77-2.88,2.17-1.31-.93-2.36-3.2-8.12-.94-2.38-2.5.56-5.43,1.2a27.527,27.527,0,0,0-6.14-6.19l-.03-.02-.02-.01h0l1.47-5.78.56-2.22L99.56,42.6l-.46-.26-.13-.07-.13-.06-7.22-3.22-2.3-1.02-1.41,2.08-3.29,4.87h-.01a39.124,39.124,0,0,0-4.59-.27,40.344,40.344,0,0,0-4.25.23h0l-2.96-4.81-1.26-2.16Z"/>
      </g>
    </g>
    <circle id="Ellipse_120" data-name="Ellipse 120" class="cls-2" cx="16.29" cy="16.29" r="16.29" transform="translate(63.49 60.77)"/>
  </g>
  <g id="Group_771" data-name="Group 771">
    <g id="Group_767" data-name="Group 767">
      <g id="Group_766" data-name="Group 766">
        <g id="Group_765" data-name="Group 765">
          <path id="Path_1213" data-name="Path 1213" class="cls-3" d="M19.65,28.27"/>
        </g>
        <path id="Path_1214" data-name="Path 1214" class="cls-3" d="M25.09,39.27a66,66,0,0,0,.52,78.01l10.26-10.26v28.51H7.36l10.65-10.62A76.116,76.116,0,0,1,102.03,5.51"/>
        <path id="Path_1215" data-name="Path 1215" class="cls-4" d="M82.16,12.05c-1.19-.06-2.4-.1-3.61-.1A65.7,65.7,0,0,0,35.4,28.02"/>
      </g>
    </g>
    <g id="Group_770" data-name="Group 770">
      <g id="Group_769" data-name="Group 769">
        <g id="Group_768" data-name="Group 768">
          <path id="Path_1216" data-name="Path 1216" class="cls-5" d="M139.85,125.91"/>
        </g>
        <path id="Path_1217" data-name="Path 1217" class="cls-5" d="M134.41,114.91a66,66,0,0,0-.52-78.01L123.63,47.16V18.65h28.51L141.49,29.27a76.116,76.116,0,0,1-84.02,119.4"/>
        <path id="Path_1218" data-name="Path 1218" class="cls-6" d="M77.34,142.13c1.19.06,2.4.1,3.61.1a65.7,65.7,0,0,0,43.15-16.07"/>
      </g>
    </g>
  </g>
</svg>
