<?xml version="1.0" encoding="iso-8859-1"?>
<!-- Generator: Adobe Illustrator 19.0.0, SVG Export Plug-In . SVG Version: 6.00 Build 0)  -->
<svg version="1.1" id="Capa_1" xmlns="http://www.w3.org/2000/svg" xmlns:xlink="http://www.w3.org/1999/xlink" x="0px" y="0px"
	 viewBox="0 0 512 512" style="enable-background:new 0 0 512 512;" xml:space="preserve">
<path style="fill:#AAC4DA;" d="M371.627,101.333c-16.003-9.76-33.417-16.992-51.627-21.44V10.667h-85.333v69.227
	c-18.209,4.448-35.623,11.68-51.627,21.44l-49.067-48.96L73.707,112.64l48.96,49.067c-9.76,16.003-16.992,33.417-21.44,51.627H32
	v85.333h69.227c4.448,18.209,11.68,35.623,21.44,51.627l-48.96,48.96l60.267,60.373l49.067-48.96
	c16.003,9.76,33.417,16.992,51.627,21.44v69.227H320v-69.227c18.209-4.448,35.623-11.68,51.627-21.44l1.707,1.707V99.627
	L371.627,101.333z"/>
<circle style="fill:#D9EEF7;" cx="277.333" cy="256" r="85.333"/>
<circle style="fill:#F2F2F2;" cx="277.333" cy="256" r="32"/>
<path style="fill:#D9EEF7;" d="M437.333,21.333V64c0,5.891-4.776,10.667-10.667,10.667v224H384v-224
	c-5.891,0-10.667-4.776-10.667-10.667V21.333c0-5.891,4.776-10.667,10.667-10.667h42.667
	C432.558,10.667,437.333,15.442,437.333,21.333z"/>
<path style="fill:#F2F2F2;" d="M384,469.333h42.667v32H384V469.333z"/>
<path style="fill:#FF7260;" d="M448,341.333v128h-21.333H384h-21.333v-128h-32v-42.667h32H384h42.667H448h32v42.667H448z"/>
<g>
	<path style="fill:#4C5B66;" d="M309.333,490.667h-64v-58.592c0-4.926-3.372-9.211-8.16-10.368
		c-17.149-4.148-33.545-10.946-48.597-20.149c-4.202-2.566-9.615-1.923-13.099,1.557l-41.451,41.451l-45.259-45.259l41.451-41.451
		c3.486-3.485,4.129-8.905,1.557-13.109c-9.211-15.045-16.01-31.439-20.149-48.587c-1.157-4.788-5.443-8.16-10.368-8.16H42.667v-64
		h58.592c4.925,0,9.211-3.372,10.368-8.16c4.148-17.149,10.946-33.545,20.149-48.597c2.566-4.202,1.923-9.615-1.557-13.099
		l-41.451-41.451l45.259-45.259l41.451,41.451c3.485,3.486,8.905,4.129,13.109,1.557c15.045-9.211,31.439-16.01,48.587-20.149
		c4.788-1.157,8.16-5.443,8.16-10.368V21.333h64v32h21.333V10.667C330.667,4.776,325.891,0,320,0h-85.333
		C228.776,0,224,4.776,224,10.667v61.056c-13.649,3.939-26.812,9.399-39.243,16.277l-43.189-43.2
		c-4.165-4.164-10.917-4.164-15.083,0l-60.352,60.352c-4.164,4.165-4.164,10.917,0,15.083l43.189,43.189
		c-6.872,12.432-12.329,25.595-16.267,39.243H32c-5.891,0-10.667,4.776-10.667,10.667v85.333c0,5.891,4.776,10.667,10.667,10.667
		h61.056c3.939,13.649,9.399,26.812,16.277,39.243l-43.2,43.189c-4.164,4.165-4.164,10.917,0,15.083l60.352,60.352
		c4.165,4.164,10.917,4.164,15.083,0l43.189-43.189c12.432,6.872,25.595,12.329,39.243,16.267v61.056
		c0,5.891,4.776,10.667,10.667,10.667H320c5.891,0,10.667-4.776,10.667-10.667V448h-21.333V490.667z"/>
	<path style="fill:#4C5B66;" d="M480,288h-42.667V82.464C443.93,78.655,447.996,71.618,448,64V21.333C448,9.551,438.449,0,426.667,0
		H384c-11.782,0-21.333,9.551-21.333,21.333V64c0.004,7.618,4.07,14.655,10.667,18.464V288h-42.667
		c-5.891,0-10.667,4.776-10.667,10.667v42.667c0,5.891,4.776,10.667,10.667,10.667H352v117.333c0,5.891,4.776,10.667,10.667,10.667
		h10.667v21.333c0,5.891,4.776,10.667,10.667,10.667h42.667c5.891,0,10.667-4.776,10.667-10.667V480H448
		c5.891,0,10.667-4.776,10.667-10.667V352H480c5.891,0,10.667-4.776,10.667-10.667v-42.667C490.667,292.776,485.891,288,480,288z
		 M384,21.333h42.667V64C420.776,64,416,68.776,416,74.667V288h-21.333V74.667C394.667,68.776,389.891,64,384,64V21.333z
		 M416,490.667h-21.333V480H416V490.667z M469.333,330.667H448c-5.891,0-10.667,4.776-10.667,10.667v117.333h-64V352H416v-21.333
		h-74.667v-21.333h128V330.667z"/>
	<path style="fill:#4C5B66;" d="M394.667,373.333H416v21.333h-21.333V373.333z"/>
	<path style="fill:#4C5B66;" d="M394.667,416H416v21.333h-21.333V416z"/>
	<path style="fill:#4C5B66;" d="M340.075,183.339c-40.13-34.65-100.751-30.209-135.402,9.921s-30.209,100.751,9.921,135.402
		C232.03,343.716,254.298,352,277.333,352v-21.333c-41.237-0.013-74.656-33.453-74.643-74.691s33.453-74.656,74.691-74.643
		c17.899,0.006,35.2,6.441,48.752,18.133L340.075,183.339z"/>
	<path style="fill:#4C5B66;" d="M234.667,256c0,23.564,19.103,42.667,42.667,42.667S320,279.564,320,256
		s-19.103-42.667-42.667-42.667S234.667,232.436,234.667,256z M298.667,256c0,11.782-9.551,21.333-21.333,21.333
		C265.551,277.333,256,267.782,256,256c0-11.782,9.551-21.333,21.333-21.333C289.115,234.667,298.667,244.218,298.667,256z"/>
</g>
<g>
</g>
<g>
</g>
<g>
</g>
<g>
</g>
<g>
</g>
<g>
</g>
<g>
</g>
<g>
</g>
<g>
</g>
<g>
</g>
<g>
</g>
<g>
</g>
<g>
</g>
<g>
</g>
<g>
</g>
</svg>
