<?xml version="1.0" encoding="UTF-8" standalone="no"?>
<!-- Created with Inkscape (http://www.inkscape.org/) -->

<svg
   xmlns:dc="http://purl.org/dc/elements/1.1/"
   xmlns:cc="http://creativecommons.org/ns#"
   xmlns:rdf="http://www.w3.org/1999/02/22-rdf-syntax-ns#"
   xmlns:svg="http://www.w3.org/2000/svg"
   xmlns="http://www.w3.org/2000/svg"
   xmlns:sodipodi="http://sodipodi.sourceforge.net/DTD/sodipodi-0.dtd"
   xmlns:inkscape="http://www.inkscape.org/namespaces/inkscape"
   width="400"
   height="680"
   viewBox="0 0 105.83332 179.91669"
   version="1.1"
   id="svg837"
   inkscape:version="0.92.4 (5da689c313, 2019-01-14)"
   sodipodi:docname="simurgh01.svg">
  <defs
     id="defs831" />
  <sodipodi:namedview
     id="base"
     pagecolor="#ffffff"
     bordercolor="#666666"
     borderopacity="1.0"
     inkscape:pageopacity="0.0"
     inkscape:pageshadow="2"
     inkscape:zoom="1.4"
     inkscape:cx="54.317051"
     inkscape:cy="547.76963"
     inkscape:document-units="mm"
     inkscape:current-layer="layer1"
     showgrid="false"
     inkscape:window-width="1920"
     inkscape:window-height="1017"
     inkscape:window-x="-8"
     inkscape:window-y="-8"
     inkscape:window-maximized="1"
     units="px" />
  <metadata
     id="metadata834">
    <rdf:RDF>
      <cc:Work
         rdf:about="">
        <dc:format>image/svg+xml</dc:format>
        <dc:type
           rdf:resource="http://purl.org/dc/dcmitype/StillImage" />
        <dc:title />
      </cc:Work>
    </rdf:RDF>
  </metadata>
  <g
     inkscape:label="Layer 1"
     inkscape:groupmode="layer"
     id="layer1"
     transform="translate(0,-117.08326)">
    <g
       id="g1390"
       transform="matrix(0.61125848,0,0,0.50348236,-16.419568,129.25275)"
       style="fill:#000000">
      <path
         sodipodi:nodetypes="ssccsssccsccsccssccssscssccscccssccccccccccccccccccsccsccscccscscscsscccccsscccsccccsscccsscccsccssccccccccscccs"
         inkscape:connector-curvature="0"
         id="path827"
         d="m 37.051798,324.57094 c 1.744447,-31.8648 12.494172,-56.3959 42.648019,-97.32364 13.068486,-17.73783 15.402672,-21.30119 22.414873,-34.21831 6.28511,-11.57779 6.04898,-9.62344 -0.52289,4.32764 -4.393707,9.32721 -26.397893,47.09148 -39.549268,67.87571 -17.037413,26.92565 -22.806788,41.29144 -24.247309,60.37601 -0.406955,5.39148 -1.046517,4.49903 -0.743425,-1.03741 z m 39.61176,0.24073 c -0.798724,-3.70946 -1.116269,-12.79335 -0.674363,-19.29141 1.751147,-25.74939 9.348207,-47.66962 31.808305,-91.77827 8.64391,-16.97548 11.94693,-23.8006 14.89419,-30.77618 2.87975,-6.81581 3.25968,-7.53861 2.43841,-4.63895 -2.64165,9.32695 -19.8772,52.3742 -30.655708,76.56532 -13.948763,31.30642 -17.357504,43.53948 -17.392449,62.41688 -0.01597,8.61718 -0.0494,9.21643 -0.418385,7.50261 z m -19.343443,-3.6093 c -1.143233,-25.43241 8.986837,-52.67318 38.994636,-104.86043 10.636589,-18.49834 15.208509,-26.95786 19.010629,-35.1759 2.81412,-6.08249 -2.57053,8.68283 -6.70946,18.39817 -7.09501,16.65409 -14.496636,31.66535 -26.996169,54.75093 -17.534643,32.38499 -23.433164,48.77024 -23.463881,65.17937 -0.0086,4.61226 -0.646594,5.91593 -0.835755,1.70786 z m 37.916181,-5.2083 C 90.88205,290.0701 97.58145,256.07164 115.52139,213.05042 c 4.0211,-9.64289 20.23294,-46.3372 20.47213,-46.3372 0.5014,0 -0.31239,2.5712 -5.49683,17.36744 -3.11717,8.89635 -8.29328,23.80005 -11.50246,33.11936 -3.20917,9.31928 -8.01989,23.15521 -10.69049,30.74646 -11.467051,32.59546 -14.284535,47.70724 -12.505131,67.07231 0.483706,5.26416 0.231527,5.70156 -0.562313,0.97528 z m 18.434634,-0.76363 c -8.67912,-34.1127 -1.88435,-71.6945 24.85666,-137.48205 6.89208,-16.95573 7.82166,-18.22653 3.41103,-4.66322 -26.02497,80.03065 -32.5093,112.98691 -27.63795,140.46847 1.20816,6.81583 0.89198,7.65775 -0.62974,1.6768 z M 94.229477,162.10613 86.346804,161.57977 c 4.792383,-2.52317 7.131334,-1.42583 13.464267,-4.12228 6.674899,0.47176 8.170769,-31.27758 18.179759,-31.74905 8.87587,-0.41791 12.5249,0.54237 5.25207,2.40598 -13.41927,3.43839 -11.03013,33.44313 -19.37503,31.91266 z m 10.151903,-17.67346 c -5.876721,5.72124 -12.404794,7.10481 -15.816703,3.81354 l -1.037189,-1.00053 1.296492,0.32564 c 14.64381,3.67823 11.170048,-26.97587 24.38019,-26.81571 4.28237,0.052 10.29671,-1.12921 8.96379,-0.63392 -2.09282,0.77766 -7.02666,1.95684 -10.01573,5.48577 -4.36906,2.38324 -7.47771,13.18014 -7.77085,18.82521 z m -9.117568,-25.50286 c -8.758969,7.0028 -20.205673,15.42688 -29.006825,4.77549 -2.167228,-2.62284 -1.371175,-2.442 2.671055,0.60676 13.671477,10.31148 21.318612,-15.76348 45.920458,-12.28456 1.21222,0.17134 7.49573,0.13018 7.11776,2.07123 -0.12788,0.65668 -21.09189,-1.2543 -26.702448,4.83108 z m 21.784608,-10.36513 c -23.555897,-2.92733 -46.134979,12.23124 -62.573873,-5.8555 -2.952982,-3.248986 -2.302322,-3.140157 2.730312,0.45673 19.148643,13.6857 42.525193,-1.61795 61.788331,3.78358 8.23108,2.30807 7.63235,2.80533 -1.94477,1.61519 z m 3.91085,-5.50286 C 94.174772,96.5901 52.127848,92.138863 41.922733,73.721617 40.295216,70.78441 41.524228,71.582463 47.627471,77.425939 63.883197,92.989785 93.627225,88.95362 116.93882,99.68478 c 10.05787,4.62998 10.40188,4.91893 4.02045,3.37704 z m 40.27472,19.83239 c -1.35377,-6.24819 2.52812,-11.90803 8.16729,-11.90803 3.07416,0 6.54808,3.47494 6.54808,6.55 v 1.33169 l -1.31137,-1.78144 c -4.41902,-6.00296 -11.37242,-3.5278 -12.05226,4.29017 -0.28421,3.26822 -0.8378,3.88974 -1.35174,1.51761 z m 19.19553,-0.0598 c 0.21588,-0.32912 1.47801,-1.89093 2.80471,-3.47068 9.98639,-11.89117 9.72698,-22.729248 -0.69684,-29.116025 -6.17205,-3.781669 -10.67014,-3.962348 -24.22054,-0.972905 -6.62616,1.576586 -15.87941,-1.825752 -22.71992,-3.671575 -9.55561,-1.840131 -32.71144,-7.889256 0.77104,-2.362676 4.27332,1.434152 13.8846,5.659487 17.02214,4.990348 23.64164,-5.042003 27.93966,-4.929102 34.2323,0.899211 8.38998,7.770872 8.66513,18.247162 0.73395,27.943942 -2.51115,3.07021 -9.48795,8.14016 -7.92684,5.76036 z M 122.06314,97.254184 C 93.639239,90.185974 55.555567,77.50624 39.98641,48.268614 33.2881,35.689725 34.299294,36.284832 42.125794,47.317102 c 15.171245,21.385483 55.553181,35.454459 78.807716,46.840069 5.13229,2.51282 5.86608,4.274823 1.12963,3.097013 z M 105.1661,84.708407 C 91.258261,75.839292 24.09932,11.960033 32.787608,-14.808427 c 1.404297,-4.326618 2.094033,-3.439814 2.796383,3.595361 3.037077,30.421129 49.412456,79.987205 89.357579,99.170497 17.10324,3.559132 -4.85023,4.547552 -19.77547,-3.249024 z m 87.49857,7.249891 c -0.66125,-6.04962 -6.35557,-16.005242 -14.34911,-21.875332 -6.58207,-4.833569 -19.21446,-14.015551 -18.40702,-14.760899 0.16621,-0.15343 9.51514,5.38895 10.49643,6.079854 0.98131,0.690906 7.21789,3.365357 9.50594,5.036843 7.99874,5.843311 11.20323,8.959493 13.15922,14.226422 1.73911,4.682927 1.5763,14.67125 -0.40546,11.293112 z m -6.424,-6.092154 c -2.85348,-2.364541 -10.84795,-9.179718 -22.53518,-15.331356 -7.057,-3.714507 -20.10961,-13.274009 -21.35892,-17.410649 -0.30247,-1.00142 2.97202,0.407807 5.04347,2.335994 2.94924,2.745185 9.4921,5.858935 17.03808,10.265204 9.54222,4.776433 21.33571,15.411382 24.91437,21.480842 2.05622,3.487348 4.30984,7.827826 -3.10182,-1.340035 z m -21.6281,-7.215154 c -14.95519,-3.534644 -41.88905,-23.952509 -43.59965,-34.34305 10.31152,10.799155 17.31783,14.682085 20.95315,18.303409 7.55917,5.0364 15.3137,9.497824 27.85192,15.377522 5.95139,2.790834 4.55356,2.968654 -5.20542,0.662119 z"
         style="fill:#000000;stroke-width:0.49826014" />
      <path
         style="fill:#000000;stroke-width:0.49826014"
         d="m 37.051798,324.57094 c 1.744447,-31.8648 12.494172,-56.3959 42.648019,-97.32364 13.068486,-17.73783 15.402672,-21.30119 22.414873,-34.21831 6.28511,-11.57779 6.04898,-9.62344 -0.52289,4.32764 -4.393707,9.32721 -26.397893,47.09148 -39.549268,67.87571 -17.037413,26.92565 -22.806788,41.29144 -24.247309,60.37601 -0.406955,5.39148 -1.046517,4.49903 -0.743425,-1.03741 z m 39.61176,0.24073 c -0.798724,-3.70946 -1.116269,-12.79335 -0.674363,-19.29141 1.751147,-25.74939 9.348207,-47.66962 31.808305,-91.77827 8.64391,-16.97548 11.94693,-23.8006 14.89419,-30.77618 2.87975,-6.81581 3.25968,-7.53861 2.43841,-4.63895 -2.64165,9.32695 -19.8772,52.3742 -30.655708,76.56532 -13.948763,31.30642 -17.357504,43.53948 -17.392449,62.41688 -0.01597,8.61718 -0.0494,9.21643 -0.418385,7.50261 z m -19.343443,-3.6093 c -1.143233,-25.43241 8.986837,-52.67318 38.994636,-104.86043 10.636589,-18.49834 15.208509,-26.95786 19.010629,-35.1759 2.81412,-6.08249 -2.57053,8.68283 -6.70946,18.39817 -7.09501,16.65409 -14.496636,31.66535 -26.996169,54.75093 -17.534643,32.38499 -23.433164,48.77024 -23.463881,65.17937 -0.0086,4.61226 -0.646594,5.91593 -0.835755,1.70786 z m 37.916181,-5.2083 C 90.88205,290.0701 97.58145,256.07164 115.52139,213.05042 c 4.0211,-9.64289 20.23294,-46.3372 20.47213,-46.3372 0.5014,0 -0.31239,2.5712 -5.49683,17.36744 -3.11717,8.89635 -8.29328,23.80005 -11.50246,33.11936 -3.20917,9.31928 -8.01989,23.15521 -10.69049,30.74646 -11.467051,32.59546 -14.284535,47.70724 -12.505131,67.07231 0.483706,5.26416 0.231527,5.70156 -0.562313,0.97528 z m 18.434634,-0.76363 c -8.67912,-34.1127 -1.88435,-71.6945 24.85666,-137.48205 6.89208,-16.95573 7.82166,-18.22653 3.41103,-4.66322 -26.02497,80.03065 -32.5093,112.98691 -27.63795,140.46847 1.20816,6.81583 0.89198,7.65775 -0.62974,1.6768 z M 94.229477,162.10613 86.346804,161.57977 c 4.792383,-2.52317 7.131334,-1.42583 13.464267,-4.12228 6.674899,0.47176 8.170769,-31.27758 18.179759,-31.74905 8.87587,-0.41791 12.5249,0.54237 5.25207,2.40598 -13.41927,3.43839 -11.03013,33.44313 -19.37503,31.91266 z m 10.151903,-17.67346 c -5.876721,5.72124 -12.404794,7.10481 -15.816703,3.81354 l -1.037189,-1.00053 1.296492,0.32564 c 14.64381,3.67823 11.170048,-26.97587 24.38019,-26.81571 4.28237,0.052 10.29671,-1.12921 8.96379,-0.63392 -2.09282,0.77766 -7.02666,1.95684 -10.01573,5.48577 -4.36906,2.38324 -7.47771,13.18014 -7.77085,18.82521 z m -9.117568,-25.50286 c -8.758969,7.0028 -20.205673,15.42688 -29.006825,4.77549 -2.167228,-2.62284 -1.371175,-2.442 2.671055,0.60676 13.671477,10.31148 21.318612,-15.76348 45.920458,-12.28456 1.21222,0.17134 7.49573,0.13018 7.11776,2.07123 -0.12788,0.65668 -21.09189,-1.2543 -26.702448,4.83108 z m 21.784608,-10.36513 c -23.555897,-2.92733 -46.134979,12.23124 -62.573873,-5.8555 -2.952982,-3.248986 -2.302322,-3.140157 2.730312,0.45673 19.148643,13.6857 42.525193,-1.61795 61.788331,3.78358 8.23108,2.30807 7.63235,2.80533 -1.94477,1.61519 z m 3.91085,-5.50286 C 94.174772,96.5901 52.127848,92.138863 41.922733,73.721617 40.295216,70.78441 41.524228,71.582463 47.627471,77.425939 63.883197,92.989785 93.627225,88.95362 116.93882,99.68478 c 10.05787,4.62998 10.40188,4.91893 4.02045,3.37704 z m 62.92759,2.67138 c -0.51386,-6.684738 -4.11888,-10.308384 -8.26095,-10.342463 6.99673,-3.224872 13.05084,2.453227 8.26095,10.342463 z m -3.45734,17.10121 c 0.21588,-0.32912 1.47801,-1.89093 2.80471,-3.47068 9.98639,-11.89117 9.72698,-22.729248 -0.69684,-29.116025 -6.17205,-3.781669 -10.67014,-3.962348 -24.22054,-0.972905 -6.62616,1.576586 -15.87941,-1.825752 -22.71992,-3.671575 -9.55561,-1.840131 -32.71144,-7.889256 0.77104,-2.362676 4.27332,1.434152 13.8846,5.659487 17.02214,4.990348 23.64164,-5.042003 27.93966,-4.929102 34.2323,0.899211 8.38998,7.770872 8.66513,18.247162 0.73395,27.943942 -2.51115,3.07021 -9.48795,8.14016 -7.92684,5.76036 z M 122.06314,97.254184 C 93.639239,90.185974 55.555567,77.50624 39.98641,48.268614 33.2881,35.689725 34.299294,36.284832 42.125794,47.317102 c 15.171245,21.385483 55.553181,35.454459 78.807716,46.840069 5.13229,2.51282 5.86608,4.274823 1.12963,3.097013 z M 105.1661,84.708407 C 91.258261,75.839292 24.09932,11.960033 32.787608,-14.808427 c 1.404297,-4.326618 2.094033,-3.439814 2.796383,3.595361 3.037077,30.421129 49.412456,79.987205 89.357579,99.170497 17.10324,3.559132 -4.85023,4.547552 -19.77547,-3.249024 z m 87.49857,7.249891 c -0.66125,-6.04962 -6.35557,-16.005242 -14.34911,-21.875332 -6.58207,-4.833569 -19.21446,-14.015551 -18.40702,-14.760899 0.16621,-0.15343 9.51514,5.38895 10.49643,6.079854 0.98131,0.690906 7.21789,3.365357 9.50594,5.036843 7.99874,5.843311 11.20323,8.959493 13.15922,14.226422 1.73911,4.682927 1.5763,14.67125 -0.40546,11.293112 z m -6.424,-6.092154 c -2.85348,-2.364541 -10.84795,-9.179718 -22.53518,-15.331356 -7.057,-3.714507 -20.10961,-13.274009 -21.35892,-17.410649 -0.30247,-1.00142 2.97202,0.407807 5.04347,2.335994 2.94924,2.745185 9.4921,5.858935 17.03808,10.265204 9.54222,4.776433 21.33571,15.411382 24.91437,21.480842 2.05622,3.487348 4.30984,7.827826 -3.10182,-1.340035 z m -21.6281,-7.215154 c -14.95519,-3.534644 -41.88905,-23.952509 -43.59965,-34.34305 10.31152,10.799155 17.31783,14.682085 20.95315,18.303409 7.55917,5.0364 15.3137,9.497824 27.85192,15.377522 5.95139,2.790834 4.55356,2.968654 -5.20542,0.662119 z"
         id="path1420"
         inkscape:connector-curvature="0"
         sodipodi:nodetypes="ssccsssccsccsccssccssscssccscccssccccccccccccccccccsccsccscccscscsccccsscccsccccsscccsscccsccssccccccccscccs" />
    </g>
  </g>
</svg>
