<svg xmlns="http://www.w3.org/2000/svg" data-name="Layer 1" viewBox="0 0 197.74933 197.74431"><title>ERA_icons_artboarded</title><path fill="#63c5cb" d="M148.687 84.55s-9-17-17-15c0 0 13-17-5-26 0 0-7-5-15-3 0 0-6-17-21-2 0 0-12-18-21 2 0 0-16-3-21 8a20.067 20.067 0 0 0 1.64 19.705s-14.64 5.295-15.64 17.295 7 20 7 20-5 15 2 21a31.545 31.545 0 0 0 15 7s4 11 13 13 15 0 18-2c0 0 11 5 13 4s0-18 0-18l6-6 1.124-7.663-6.124-5.337 5-8 9 3 5-5v-9l12-3z"/><path fill="#004d6c" d="M54.88 156.102l1.7-3.014a72.084 72.084 0 0 1-3.984-2.443l-1.915 2.883a76.322 76.322 0 0 0 4.2 2.574z"/><path fill="#004d6c" d="M58.437 70.027l-2.634 2.244a10.767 10.767 0 0 0 5.93 3.385l.274.058-.02.093a9.084 9.084 0 0 1 6.723 7.82l3.451-.262a11.977 11.977 0 0 0-3.39-7.433l-.351-.36.49-.11a22.487 22.487 0 0 0 3.675-1.168l-1.453-3.144c-1.453.593-8.69 3.231-12.695-1.123z"/><path fill="#004d6c" d="M45.77 150.003l2.116-2.736a72.344 72.344 0 0 1-3.592-2.992l-2.308 2.577a76.07 76.07 0 0 0 3.783 3.15z"/><path fill="#004d6c" d="M33.436 132.206a73.054 73.054 0 0 1-2.593-3.888l-2.946 1.815a75.873 75.873 0 0 0 2.733 4.095z"/><path fill="#004d6c" d="M40.118 140.257a72.843 72.843 0 0 1-3.127-3.475l-2.653 2.219a75.518 75.518 0 0 0 3.294 3.661z"/><path fill="#004d6c" d="M144.182 114.2a14.413 14.413 0 0 0-16.26.446 14.38 14.38 0 0 0-5.832 15.142 14.717 14.717 0 0 0 14.24 11.42 14.652 14.652 0 0 0 7.852-27.008zm1.625 18.34a11.077 11.077 0 0 1-6.877 4.903v.001l-.112.027a11.174 11.174 0 0 1-4.91-21.803 11.185 11.185 0 0 1 11.899 16.872z"/><path fill="#004d6c" d="M52.45 96.725l2.452-2.45a7.362 7.362 0 0 1-.593-9.53l-2.748-2.102a10.843 10.843 0 0 0 .889 14.082z"/><path fill="#004d6c" d="M27.983 123.281a72.603 72.603 0 0 1-2.005-4.22l-3.175 1.37a74.82 74.82 0 0 0 2.113 4.447z"/><path fill="#004d6c" d="M125.898 73.956l-2.634-2.244c-4.002 4.352-11.24 1.716-12.696 1.123l-1.452 3.144a22.429 22.429 0 0 0 3.674 1.167l.49.11-.35.36a11.985 11.985 0 0 0-3.39 7.436l3.45.26a9.03 9.03 0 0 1 6.733-7.824l-.019-.091.273-.058a10.77 10.77 0 0 0 5.92-3.383z"/><path fill="#004d6c" d="M59.875 159.016a75.803 75.803 0 0 0 5.064 2.17l1.448-3.752a71.042 71.042 0 0 1-4.792-2.054z"/><path fill="#fff" d="M65.1 161.548l-.262-.1a76.358 76.358 0 0 1-5.083-2.178l-.254-.12 1.96-4.144.254.12a70.72 70.72 0 0 0 4.773 2.046l.262.101zm-4.85-2.666a75.267 75.267 0 0 0 4.529 1.94l1.245-3.228a71.433 71.433 0 0 1-4.295-1.84z"/><path fill="#004d6c" d="M61.4 106.912a13.427 13.427 0 0 1-12.467.527l-1.539 3.099a16.951 16.951 0 0 0 19.07-3.167l.127-.124.167.062a7.316 7.316 0 0 1 4.969 8.134l3.413.57a10.753 10.753 0 0 0-5.997-11.429l-.273-.138.161-.26a16.992 16.992 0 0 0 2.484-7.589l-3.453-.214a13.404 13.404 0 0 1-6.663 10.529z"/><path fill="#004d6c" d="M107.54 160.932a72.787 72.787 0 0 1-36.036-1.447l-1.006 3.308a76.156 76.156 0 0 0 37.778 1.52z"/><path fill="#004d6c" d="M151.523 151.988a29.339 29.339 0 0 0 3.7-2.614l.107-.089 9.052 2.046 6.366-10.077-5.728-7.298.034-.134a29.439 29.439 0 0 0 .776-4.465l.013-.137 7.844-4.956-2.622-11.63-9.211-1.107-.071-.118a29.534 29.534 0 0 0-2.613-3.703l-.088-.106 2.047-9.052-10.072-6.369-7.305 5.731-.134-.034a29.367 29.367 0 0 0-4.462-.772l-.137-.013-4.96-7.842-11.623 2.617-1.109 9.211-.118.07a29.35 29.35 0 0 0-3.702 2.614l-.106.089-9.053-2.042-6.369 10.073 5.727 7.3-.034.134a29.776 29.776 0 0 0-.776 4.465l-.013.137-7.844 4.955 2.622 11.63 9.21 1.111.07.118a29.633 29.633 0 0 0 2.615 3.7l.088.107-2.043 9.049 10.072 6.37 7.303-5.73.134.034a29.15 29.15 0 0 0 4.464.774l.137.013 4.952 7.843 11.623-2.62 1.118-9.212zm-3.341-2.09l-1.036 8.536-6.86 1.545-4.59-7.268a26.626 26.626 0 0 1-7.467-1.293l-6.77 5.31-5.946-3.76 1.893-8.387a27.208 27.208 0 0 1-4.378-6.193l-8.53-1.029-1.548-6.865 7.264-4.589a27.414 27.414 0 0 1 1.299-7.474l-5.307-6.764 3.76-5.947 8.389 1.891a26.85 26.85 0 0 1 6.197-4.37l1.026-8.537 6.861-1.546 4.596 7.267a27.06 27.06 0 0 1 7.47 1.292l6.766-5.308 5.946 3.759-1.9 8.388a26.962 26.962 0 0 1 4.378 6.196l8.532 1.026 1.548 6.865-7.269 4.592a26.52 26.52 0 0 1-1.298 7.468l5.313 6.767-3.757 5.95-8.39-1.896a26.943 26.943 0 0 1-6.192 4.374z"/><path fill="#004d6c" d="M145.638 85.543l3.4-.628a23.178 23.178 0 0 0-13.9-16.798l-.29-.117.148-.276a19.928 19.928 0 0 0-21.6-28.85l-.247.054-.08-.239a12.184 12.184 0 0 0-21.88-2.613l-.246.391-.234-.4a12.182 12.182 0 0 0-22.078 2.286l-.08.238-.246-.052a19.923 19.923 0 0 0-21.602 28.846l.147.276-.289.117a22.945 22.945 0 0 0-6.604 38.418l.161.142-.095.193a19.936 19.936 0 0 0 18.6 28.715l.225-.01.059.216a19.879 19.879 0 0 0 11.474 13.085c6.115 2.523 13.233 1.763 20.041-2.146l.144-.082.141.085a26.794 26.794 0 0 0 12.603 4.033v-3.46a23.638 23.638 0 0 1-10.8-3.525l-.136-.081V60.376l.254.108a15.562 15.562 0 0 1 9.609-7.448l-.933-3.331a20.065 20.065 0 0 0-8.454 4.852l-.476.462V41.691l.447.027a8.749 8.749 0 0 1 9.216-7.896 8.747 8.747 0 0 1 8.11 7.495l.285 2.042 1.961-.636a16.182 16.182 0 0 1 14.665 2.306 16.554 16.554 0 0 1 6.823 13.342c0 5.388-2.348 8.603-4.234 11.187l-.283.388 2.38.662a19.603 19.603 0 0 1 13.894 14.935zM88.915 120.8l-.157-.071a15.577 15.577 0 0 1-8.944 8.24l.803 3.367a18.138 18.138 0 0 0 7.811-5.043l.487-.525v16.501l-.14.081a22.24 22.24 0 0 1-11.037 3.258 15.48 15.48 0 0 1-6.578-1.424c-4.922-2.29-8.302-7.165-9.535-13.742l-.218.028-.048-.262a23.217 23.217 0 0 1 .979-11.24l-3.28-1.099a26.996 26.996 0 0 0-1.168 12.594l.055.332-.337-.006a16.542 16.542 0 0 1-16.192-16.457 17.32 17.32 0 0 1 3.06-9.621l.142-.231c-6.904-5.368-10.037-12.702-8.599-20.157A19.623 19.623 0 0 1 49.958 70.27l2.38-.663-.277-.38c-1.889-2.586-4.24-5.805-4.24-11.194a16.49 16.49 0 0 1 16.471-16.472 19.168 19.168 0 0 1 6.5 1.304l.479.157.284-2.041a8.731 8.731 0 0 1 17.326.395l.022-.002.013.304z"/></svg>